<svg xmlns="http://www.w3.org/2000/svg" width="36" height="36" viewBox="0 0 36 36">
    <g fill="none" fill-rule="evenodd">
        <g>
            <g>
                <g>
                    <g>
                        <g fill="#FCEA2B" fill-rule="nonzero" transform="translate(-918.000000, -1803.000000) translate(408.000000, 1716.000000) translate(510.000000, 87.000000) translate(1.500000, 1.500000) translate(0.458358, 0.000000)">
                            <ellipse cx="16.152" cy="14.228" rx="14.065" ry="14.228"/>
                            <g>
                                <path d="M11.72 7.652l-3.014 3.109C6.063 8.693 2.525 8.133.285 5.524-.017 3.888-.49-.46 1.381 1.136 4.309-.843 3.968 1.96 7.349 2.81h.119c-.375-1.657-1.01-1.57.236-2.81 2.124 2.356 2.093 5.73 4.018 7.652h-.002zM24.426.18c.94.51.287 2.167.295 2.81 1.005-.3 2.896-1.436 4.078-2.392.942.028 4.703.766 3.427 2.032 0 0 .71.24 0 1.794-.413.299-.118 1.435-.59 2.033-2.445 2.472-6.537 1.863-7.92 4.364l-3.072-3.109c2.18-2.009 1.157-5.954 3.782-7.533z" transform="translate(0.000000, 22.179348)"/>
                            </g>
                        </g>
                        <g stroke="#000" stroke-linecap="round" stroke-width="1.576">
                            <path stroke-linejoin="round" d="M28.548 20.326c1.064-2.033 1.655-4.304 1.655-6.576C30.203 6.158 24.116 0 16.61 0 9.105 0 3.019 6.158 3.019 13.75c0 2.212.531 4.424 1.595 6.397 0 .06 0 .06.06.12M12.829 26.962c1.24.359 2.482.538 3.782.538 1.24 0 2.482-.18 3.664-.478M22.402 19.25c-3.368 2.81-8.214 2.81-11.583 0" transform="translate(-918.000000, -1803.000000) translate(408.000000, 1716.000000) translate(510.000000, 87.000000) translate(1.500000, 1.500000) translate(0.000000, 0.478261)"/>
                            <path d="M14.07 12.196c-.591-1.435-2.246-2.093-3.664-1.435-.65.299-1.123.777-1.419 1.435M24.234 12.196c-.59-1.435-2.246-2.093-3.664-1.435-.65.299-1.123.777-1.418 1.435" transform="translate(-918.000000, -1803.000000) translate(408.000000, 1716.000000) translate(510.000000, 87.000000) translate(1.500000, 1.500000) translate(0.000000, 0.478261)"/>
                            <path stroke-linejoin="round" d="M12.06 29.114c-.53-.457-.918-.817-1.063-1.435-.144-1.783-.916-3.449-1.655-4.842-.177-.299-.532-1.196-.887-1.315-.531-.18-.886 0-1.004.657-.118.658.354 1.973.473 2.332-1.393-.75-2.702-1.618-3.783-2.451-.709-.419-1.3-.24-1.595.239-.118.18-.118.299-.178.418-.886-.657-1.536-.418-1.831 0-.296.36-.296.897-.06 1.256-.118.06-.236.18-.295.299-.355.598-.177 1.375.414 1.733.118.06.295.24.531.36-.059.059-.118.059-.118.119-.295.358-.295.956 0 1.315.946 1.674 5.319 2.93 6.796 3.288l1.064 1.076M24.057 32.163l1.064-1.076c1.477-.359 5.85-1.674 6.796-3.288.295-.359.295-.957-.06-1.256-.059-.06-.059-.12-.118-.12.296-.178.473-.358.532-.358.591-.358.768-1.136.414-1.733-.06-.12-.177-.24-.296-.3.237-.358.237-.896-.059-1.255-.295-.359-.945-.657-1.832 0 0-.18-.059-.359-.177-.418-.296-.419-.827-.658-1.596-.24 0 0-.059 0-.059.06-1.123.957-2.423 1.734-3.723 2.392.297-.77.999-3.476-.354-3.05-.355.12-.71 1.017-.887 1.316-1.027 1.501-1.334 3.12-1.654 4.842.018.644-.636 1.002-1.064 1.435" transform="translate(-918.000000, -1803.000000) translate(408.000000, 1716.000000) translate(510.000000, 87.000000) translate(1.500000, 1.500000) translate(0.000000, 0.478261)"/>
                        </g>
                    </g>
                </g>
            </g>
        </g>
    </g>
</svg>
