<svg xmlns="http://www.w3.org/2000/svg" width="36" height="36" viewBox="0 0 36 36">
    <g fill="none" fill-rule="evenodd">
        <g>
            <g>
                <g>
                    <g>
                        <g fill-rule="nonzero" transform="translate(-1278.000000, -1803.000000) translate(408.000000, 1716.000000) translate(870.000000, 87.000000) translate(3.000000, 3.000000)">
                            <circle cx="15" cy="15" r="15" fill="#FCEA2B"/>
                            <path fill="#FFF" d="M24.518 18.678c.008 1.004-.185 2-.567 2.929-8.146 1.976-16.585.221-17.928-.085-.365-.904-.548-1.87-.541-2.844h.071s9.652 2.342 18.842.046l.123-.046z"/>
                            <path fill="#FFF" d="M23.951 21.607c-1.167 2.784-4.141 4.715-8.928 4.715-4.833 0-7.846-1.976-9-4.8 1.343.306 9.782 2.06 17.928.085z"/>
                        </g>
                        <g stroke="#000" stroke-linecap="round" stroke-width="1.957" transform="translate(-1278.000000, -1803.000000) translate(408.000000, 1716.000000) translate(870.000000, 87.000000) translate(3.000000, 3.000000)">
                            <circle cx="15" cy="15" r="15" stroke-linejoin="round"/>
                            <path stroke-linejoin="round" d="M24.518 18.678c.008 1.004-.185 2-.567 2.929-8.146 1.976-16.585.221-17.928-.085-.365-.904-.548-1.87-.541-2.844h.071s9.652 2.342 18.842.046l.123-.046z"/>
                            <path stroke-linejoin="round" d="M23.951 21.607c-1.167 2.784-4.141 4.715-8.928 4.715-4.833 0-7.846-1.976-9-4.8 1.343.306 9.782 2.06 17.928.085z"/>
                            <path d="M12.192 12.655c-.495-1.114-1.599-1.831-2.817-1.831-1.218 0-2.322.717-2.817 1.83M23.442 12.655c-.495-1.114-1.599-1.831-2.817-1.831-1.218 0-2.322.717-2.817 1.83"/>
                        </g>
                    </g>
                </g>
            </g>
        </g>
    </g>
</svg>
