<svg xmlns="http://www.w3.org/2000/svg" width="36" height="36" viewBox="0 0 36 36">
    <g fill="none" fill-rule="evenodd">
        <g>
            <g>
                <g>
                    <g>
                        <g fill-rule="nonzero" transform="translate(-558.000000, -1803.000000) translate(408.000000, 1716.000000) translate(150.000000, 87.000000) translate(3.000000, 3.000000) translate(0.073450, 0.000000)">
                            <ellipse cx="14.963" cy="14.982" fill="#FCEA2B" rx="14.963" ry="14.982"/>
                            <path fill="#3F3F3F" d="M21.034 16.652c2.578 0 4.67-1.864 4.67-4.162 0-1.15.29-2.299-.554-3.052-.846-.753-2.827-1.11-4.116-1.11-1.533 0-3.346.094-4.197 1.11-.582.694-.473 2.12-.473 3.052 0 2.298 2.09 4.162 4.67 4.162zM8.287 16.652c2.578 0 4.67-1.864 4.67-4.162 0-1.15.291-2.299-.554-3.052-.845-.753-2.827-1.11-4.116-1.11-1.533 0-3.346.094-4.197 1.11-.581.694-.473 2.12-.473 3.052 0 2.298 2.09 4.162 4.67 4.162z"/>
                        </g>
                        <g stroke="#000" stroke-linecap="round" stroke-linejoin="round" stroke-width="1.301" transform="translate(-558.000000, -1803.000000) translate(408.000000, 1716.000000) translate(150.000000, 87.000000) translate(3.000000, 3.000000) translate(0.000000, 0.036803)">
                            <ellipse cx="14.963" cy="14.982" rx="14.963" ry="14.982"/>
                            <path d="M21.349 20.717c-4.277 2.296-9.138 2.383-12.77 0M3.9 11.339s-.62 5.57 4.464 5.158c1.704-.139 5.085-.424 5.118-5.435.003-.454-.005-1.041-.527-1.713-.693-.89-2.324-1.284-6.47-.926 0 0-2.242-.064-2.584 2.916z"/>
                            <path d="M3.947 10.991L3.665 8.795 6.158 8.452M25.928 11.339s.62 5.57-4.463 5.158c-1.705-.139-5.085-.424-5.118-5.435-.003-.454.005-1.041.527-1.713.693-.89 2.324-1.284 6.47-.926 0 0 2.242-.064 2.584 2.916zM12.112 8.702s2.683 1.65 5.632 0M13.434 11.895s1.432-2.443 2.95 0"/>
                            <path d="M25.878 10.993L26.16 8.797 23.666 8.453M13.706 11.054s1.168-2.443 2.407 0"/>
                        </g>
                    </g>
                </g>
            </g>
        </g>
    </g>
</svg>
