<svg xmlns="http://www.w3.org/2000/svg" width="19.05mm" height="19.05mm" viewBox="0 0 54 54">
    <defs>
        <style>.a{fill:#6009b0;}.a,.b,.c,.g{fill-rule:evenodd;}.b{fill:#7e00f3;}.c{fill:#420080;}.d{fill:#d8a473;}.e{fill:#efbd8d;}.f{fill:#f9feff;}.g{fill:#563d25;}</style>
    </defs>
    <path class="a" d="M45,41.11c0,3.31-2.17,5.23-6,5.23H15.05C11.23,46.34,9,43.75,9,40.67c0-4.72,5.17-9,9-9H36C39.83,31.67,45,36.4,45,41.11Z"/>
    <path class="b" d="M18,31.67H36c3.83,0,6,4.86,6,9,0,3.06-2.17,3-6,3H15c-3.83,0-6-.1-6-3C9,35.78,14.22,31.67,18,31.67Z"/>
    <polygon class="c" points="27.5 39.41 21.06 31.67 33.94 31.67 27.5 39.41"/>
    <circle class="d" cx="27.5" cy="18.17" r="10.5"/>
    <circle class="e" cx="26.5" cy="17.17" r="9.5"/>
    <path class="f"
          d="M33.27,26.16a13.45,13.45,0,0,1-.56-3,8,8,0,0,1,.35-1.89l5.35-2.72-.31-.63-4.86,2.47a19.43,19.43,0,0,1-4,.66H26.47a19.59,19.59,0,0,1-4.7-.66l-4.85-2.46-.31.63L22,21.26a8,8,0,0,1,.35,1.89,14,14,0,0,1-.54,3l-2.19-.48-.17.68,2.78.7,2.77.22h0q.75.06,1.5.09c.56,0,2.17-.05,2.77,0a9,9,0,0,0,1.47,0h.13l.61-.1,1.33-.21,2.78-.7-.19-.68Z"/>
    <path class="g" d="M27,7.67a10.07,10.07,0,0,0-9.15,5.47l3.63,2.31s4.56,1.7,7.32-1.71,4.07-.07,4.07-.07l4.29.49S36.17,7.67,27,7.67Z"/>
</svg>