<svg id="Gruppe_14" data-name="Gruppe 14" xmlns="http://www.w3.org/2000/svg" viewBox="0 0 54 54"><path id="Abgerundetes_Rechteck_2_Kopie" data-name="Abgerundetes Rechteck 2 Kopie" d="M45,41.44c0,3.31-2.17,5.23-6,5.23H15.05C11.23,46.67,9,44.08,9,41c0-4.72,5.17-9,9-9H36C39.83,32,45,36.73,45,41.44Z" fill="#0279cd" fill-rule="evenodd"/><path id="Abgerundetes_Rechteck_2_Kopie-2" data-name="Abgerundetes Rechteck 2 Kopie" d="M18,32H36c3.83,0,6,4.86,6,9,0,3.06-2.17,3-6,3H15c-3.83,0-6-.1-6-3C9,36.11,14.22,32,18,32Z" fill="#0a9aff" fill-rule="evenodd"/><path id="Polygon_1" data-name="Polygon 1" d="M27.5,39.74,21.06,32H33.94Z" fill="#00396e" fill-rule="evenodd"/><circle id="Ellipse_2_Kopie_5" data-name="Ellipse 2 Kopie 5" cx="27.5" cy="18.5" r="10.5" fill="#cb8a4b"/><circle id="Ellipse_2_Kopie_6" data-name="Ellipse 2 Kopie 6" cx="26.5" cy="17.5" r="9.5" fill="#e4a160"/><path d="M33.27,26.49a13.43,13.43,0,0,1-.56-3,8,8,0,0,1,.35-1.89l5.35-2.72-.31-.63-4.86,2.47a19.32,19.32,0,0,1-4,.66c-.42,0-2.38,0-2.77,0a19.1,19.1,0,0,1-4.7-.66l-4.85-2.46-.31.63L22,21.59a8,8,0,0,1,.35,1.89,13.4,13.4,0,0,1-.54,3L19.62,26l-.17.68,2.78.7L25,27.6h0q.75.07,1.5.09c.56,0,2.17-.05,2.77,0a9,9,0,0,0,1.47,0,0,0,0,0,0,0,0l.13,0,.61-.1,1.33-.21,2.78-.7L35.4,26Z" fill="#f9feff"/><path id="Form_2" data-name="Form 2" d="M27,8a10.07,10.07,0,0,0-9.15,5.47l3.63,2.31s4.56,1.7,7.32-1.71S32.87,14,32.87,14l4.29.49S36.17,8,27,8Z" fill="#563d25" fill-rule="evenodd"/></svg>