<?xml version="1.0" encoding="UTF-8"?>
<svg width="1512px" height="199px" viewBox="0 0 1512 199" version="1.1" xmlns="http://www.w3.org/2000/svg" xmlns:xlink="http://www.w3.org/1999/xlink">
    <title>Waves@2x</title>
    <defs>
        <rect id="path-1" x="0" y="0" width="1512" height="199"></rect>
    </defs>
    <g id="Page-1" stroke="none" stroke-width="1" fill="none" fill-rule="evenodd">
        <g id="Waves">
            <mask id="mask-2" fill="white">
                <use xlink:href="#path-1"></use>
            </mask>
            <use id="Rectangle" fill-opacity="0" fill="#FFFFFF" xlink:href="#path-1"></use>
            <path d="M-4.54747351e-13,111.44 C36.7464789,111.44 144.15556,74.3101266 302.502463,74.3101266 C460.849366,74.3101266 442.0755,99.3098496 578.373367,99.3098496 C714.671234,99.3098496 734.997856,66.7531646 826.943456,66.7531646 C918.889055,66.7531646 977.56834,99.3098496 1091.68938,99.3098496 C1205.81043,99.3098496 1181.16687,66.7531646 1313.33511,66.7531646 C1445.50335,66.7531646 1548.44996,148.338867 1616,148.338867 C1616,148.338867 1616,162.706924 1616,191.443038 C538.666667,191.443038 -4.54747351e-13,191.443038 -4.54747351e-13,191.443038 C-4.54747351e-13,191.443038 -4.54747351e-13,111.44 -4.54747351e-13,111.44 Z" id="Path" fill="#FFFFFF" opacity="0.514876593" mask="url(#mask-2)"></path>
            <path d="M0,111 C36.7464789,111 43.763072,79.6210606 161.315529,79.6210606 C278.867986,79.6210606 274.54149,97.2652439 410.839356,97.2652439 C547.137223,97.2652439 523.361713,74.3101266 615.307313,74.3101266 C707.252912,74.3101266 735.645603,88.2520291 922.121759,88.2520291 C1108.59792,88.2520291 1083.64963,74.3101266 1215.81787,74.3101266 C1347.98611,74.3101266 1450.93272,111.330472 1518.48276,111.330472 C1518.48276,111.330472 1518.48276,140.553648 1518.48276,199 C506.16092,199 0,199 0,199 C0,199 0,111 0,111 Z" id="Path" fill="#FFFFFF" mask="url(#mask-2)"></path>
        </g>
    </g>
</svg>