<?xml version="1.0" encoding="UTF-8"?>
<svg width="645px" height="18px" viewBox="0 0 645 18" version="1.1" xmlns="http://www.w3.org/2000/svg" xmlns:xlink="http://www.w3.org/1999/xlink">
    <title>Group 2@2x</title>
    <g id="Page-1" stroke="none" stroke-width="1" fill="none" fill-rule="evenodd">
        <g id="Home-–-L-Login" transform="translate(-823.000000, -4591.000000)" fill="#F3F3F3" stroke="#F3F3F3" stroke-width="0.5">
            <g id="Group-2" transform="translate(824.000000, 4592.000000)">
                <path d="M187.826073,16 C62.6086909,16 0,16 0,16 C0,16 0,13.7794891 0,9.33846734 C4.88607788,9.33846734 4.88607788,2.10892432 14.2352961,2.10892432 C23.5845143,2.10892432 33.95893,9.44489162 50.8180566,9.44489162 C67.6771832,9.44489162 72.9433199,0 84.3163703,0 C95.6894207,0 94.9341576,9.33846734 118,9.33846734 C141.065842,9.33846734 134.040148,5.16163673 150.388467,5.16163673 C166.736787,5.16163673 173.063417,10.5808184 194.548269,10.5808184 C216.033121,10.5808184 219.00417,3.470371 235.197077,3.34807661 C251.389984,3.22578221 246.45978,10.0573365 263.862104,10.0573365 C281.264427,10.0573365 276.252948,5.47785225 295.511637,5.47785225 C303.549407,5.47785225 315.149445,9 322,9 L322,16 L187.826073,16 Z" id="Path" transform="translate(161.000000, 8.000000) scale(1, -1) translate(-161.000000, -8.000000) "></path>
                <path d="M509.826073,16 C384.608691,16 322,16 322,16 C322,16 322,13.6666667 322,9 C326.886078,9 326.886078,2.10892432 336.235296,2.10892432 C345.584514,2.10892432 355.95893,9.44489162 372.818057,9.44489162 C389.677183,9.44489162 394.94332,0 406.31637,0 C417.689421,0 416.934158,9.33846734 440,9.33846734 C463.065842,9.33846734 456.040148,5.16163673 472.388467,5.16163673 C488.736787,5.16163673 495.063417,10.5808184 516.548269,10.5808184 C538.033121,10.5808184 541.00417,3.470371 557.197077,3.34807661 C573.389984,3.22578221 568.45978,10.0573365 585.862104,10.0573365 C603.264427,10.0573365 598.252948,5.47785225 617.511637,5.47785225 C625.549407,5.47785225 636.149445,9 643,9 L643,16 L509.826073,16 Z" id="Path" transform="translate(482.500000, 8.000000) scale(1, -1) translate(-482.500000, -8.000000) "></path>
            </g>
        </g>
    </g>
</svg>