<svg id="Layer_1" data-name="Layer 1" xmlns="http://www.w3.org/2000/svg" viewBox="0 0 554.73 507.43"><path d="M485.06,304a16.34,16.34,0,0,0-32.66-1.18c-1.24,34.26-13.56,58.44-36.6,71.86a82.19,82.19,0,0,1-36.38,10.72h.09v.25l-47.33-19.25-.41-.41a81.68,81.68,0,0,1-18.19-31.85c-7.7-26.07.24-52.37,23.6-78.16A16.34,16.34,0,1,0,313,234c-39.28,43.37-38.39,83.41-30.72,109.36a116.83,116.83,0,0,0,23.45,42.48l-8.89,21.86-23,56.64a17.8,17.8,0,0,0,9.79,23.19l45.64,18.56a17.81,17.81,0,0,0,23.2-9.79l23-56.64,8.89-21.86a116.75,116.75,0,0,0,46.43-14.06C454.35,390.53,482.93,362.47,485.06,304Z" fill="#4db9a6"/><circle cx="371.25" cy="337.04" r="33.02" transform="translate(-79.65 556.39) rotate(-68.18)" fill="#876a50"/><circle cx="260.05" cy="127.49" r="37.23" transform="translate(-22.12 192.74) rotate(-39.14)" fill="#ffcd9c"/><path d="M161.78,190.56c.94.4,1.86.83,2.76,1.31q8.91,4.77,16.93,10l.22.09a127.1,127.1,0,0,0,30.62,9.26v16.11a143.77,143.77,0,0,1,19.21,25.07,132.75,132.75,0,0,1,18.85,61.49c.15,2.53.21,5,.22,7.47h14.59a112.07,112.07,0,0,1,2-28.72c4.68-23.48,16.82-46.16,36.09-67.44a29,29,0,0,1,4.74-4.2v-9.82A127.36,127.36,0,0,0,338.4,202c27.83-12.52,62.71-41.19,70.91-106.65a18.42,18.42,0,0,0-36.56-4.58c-4.8,38.35-21,64.29-48.24,77.07a89.81,89.81,0,0,1-21.68,6.89H217.26a89.81,89.81,0,0,1-21.68-6.89c-27.21-12.78-43.44-38.72-48.24-77.07a18.42,18.42,0,1,0-36.56,4.58C117.09,145.76,139.23,174.35,161.78,190.56Z" fill="#4ab1e5"/><path d="M157.26,205.49a19.29,19.29,0,0,0-26.36,8.42c-4.7,9.42-.72,20.83,8.56,25.81,35.46,19.06,54.6,44.58,56.89,75.87A97.78,97.78,0,0,1,192,351.41L133.75,372.5a97.81,97.81,0,0,1-26.3-24.71c-18.28-25.5-19.92-57.36-4.89-94.71,3.93-9.76-.32-21.07-10-25.3A19.29,19.29,0,0,0,67,238.19c-25.95,64-8.7,108.07,10.33,133.73,20.42,27.53,47.26,39.69,48.39,40.19l10.93,24.17,6.46,17.83a17.81,17.81,0,0,0,22.8,10.68l60.75-22A17.8,17.8,0,0,0,237.29,420l-6.46-17.83-7.29-25.48c.54-1.11,13.37-27.64,11.42-61.86C233.15,282.91,218.2,238.05,157.26,205.49Z" fill="#3360ab"/><circle cx="146.01" cy="315.43" r="38.99" transform="translate(-64.89 39.14) rotate(-12.52)" fill="#d89766"/><path d="M293.36,35.37c-1.34,2.54-6.3,14.48-10.11,7.29-1.28-2.41-.93-6-1.15-8.69-.25-3.1-.49-6.19-.74-9.29-.52-6.35-2.16-13.95-1.14-20.24.89-5.44,8-4.62,12.09-4s14.83,3.16,14.28,8.91C306.33,12,304,15,302.86,17.21Q298.14,26.32,293.36,35.37Z" fill="#ff495d"/><path d="M262.7,43.26c.64,3.38-2.07,4.53-4.61,3a32.66,32.66,0,0,1-5.51-4.35c-2.85-2.8-5.75-5.55-8.56-8.39-3.61-3.66-7.51-7.29-2.83-11.73,3.19-3,9.53-6.52,14.13-5.34,4.32,1.11,4,8.9,4.74,12.71C261,33.87,261.9,38.55,262.7,43.26Z" fill="#ff7180"/><path d="M330.67,51.13c-5,2.58-8.45,3.62-14.34,6-1.65.68-5.18,2.3-7,2.24-7.12-.25-.64-8.57.83-10.83,2-3.07,3.93-6.18,5.95-9.24,2.6-3.93,5.22-9.42,10.57-6.42a19.31,19.31,0,0,1,8.54,11.28C336.23,48.28,333.9,49.47,330.67,51.13Z" fill="#ff2b55"/><path d="M525.43,249.67c-2.73.87-14.64,5.87-12.31-1.92.79-2.62,3.57-4.93,5.3-7q3-3.57,6-7.13c4.1-4.88,8.27-11.44,13.42-15.2,4.45-3.24,9,2.37,11.4,5.67s8.32,12.67,3.89,16.37c-2,1.69-5.73,2.18-8.16,3Q535.21,246.58,525.43,249.67Z" fill="#ff495d"/><path d="M498.09,233.73c-1.93,2.85-4.66,1.77-5.41-1.08a32.83,32.83,0,0,1-.87-7c-.05-4-.19-8-.19-12,0-5.14-.22-10.46,6.23-10.33,4.39.09,11.37,2.06,13.81,6.13,2.29,3.82-3.41,9.15-5.56,12.37C503.45,225.84,500.82,229.82,498.09,233.73Z" fill="#ff7180"/><path d="M540.9,287.11c-5.34-1.66-8.56-3.37-14.44-5.79-1.65-.68-5.3-2-6.55-3.34-4.89-5.17,5.57-6.53,8.2-7.11,3.58-.79,7.14-1.64,10.73-2.39,4.61-1,10.34-3,12,2.86a19.3,19.3,0,0,1-1.85,14C546.86,289,544.37,288.19,540.9,287.11Z" fill="#ff2b55"/><path d="M36,184c1.69,2.32,10.24,12,2.12,12.28-2.74.1-5.82-1.8-8.32-2.78l-8.68-3.4c-5.93-2.32-13.48-4.18-18.69-7.86C-2,179.05,1.84,173,4.19,169.61s9.34-11.93,14.26-8.92c2.26,1.38,3.9,4.73,5.42,6.79Q30,175.72,36,184Z" fill="#ff495d"/><path d="M29.67,215c3.32.91,3.16,3.85.7,5.47a33.19,33.19,0,0,1-6.32,3.06c-3.77,1.32-7.51,2.73-11.29,4-4.88,1.65-9.85,3.56-11.79-2.6-1.32-4.19-1.68-11.42,1.4-15,2.89-3.39,9.76.31,13.5,1.31C20.47,212.43,25.09,213.65,29.67,215Z" fill="#ff7180"/><path d="M66.55,157.36c.14,5.59-.45,9.18-.87,15.53-.11,1.78-.21,5.66-1.06,7.28-3.34,6.28-8-3.19-9.36-5.5-1.89-3.14-3.84-6.25-5.7-9.4-2.4-4.06-6.18-8.83-1.14-12.31a19.33,19.33,0,0,1,13.89-2.74C66.42,151.11,66.47,153.72,66.55,157.36Z" fill="#ff2b55"/></svg>