<?xml version="1.0" encoding="utf-8"?>
<!-- Generator: Adobe Illustrator 24.2.1, SVG Export Plug-In . SVG Version: 6.00 Build 0)  -->
<svg version="1.1" id="Layer_1" xmlns="http://www.w3.org/2000/svg" xmlns:xlink="http://www.w3.org/1999/xlink" x="0px" y="0px"
	 viewBox="0 0 128 104" style="enable-background:new 0 0 128 104;" xml:space="preserve">
<style type="text/css">
	.st0{fill:none;}
	.st1{fill:#A07A84;}
	.st2{fill:#E5A173;}
	.st3{fill:#C66B47;}
	.st4{fill:#FFCD9C;}
</style>
<g transform="translate(5 12)">
	<path class="st0" d="M0,0"/>
	<polygon class="st1" points="53.4,83.7 53.3,83.6 53.5,83.9 	"/>
	<path class="st1" d="M0,0"/>
	<polygon class="st1" points="53.4,83.7 53.3,83.6 53.5,83.9 	"/>
	<path class="st2" d="M103.2,41.4c-0.8,0-2.9,0.1-5.2,0.4c4.2-1.6,9.3-4.8,8.9-8.8c-0.5-5.5-5.6-5.9-9.7-5.4
		c-0.7,0.1-1.4,0.1-2.1,0.1c1.9-0.9,4.1-2.6,3.7-5c-0.2-1.9-1.4-3.5-3.1-4.3c-1.6-0.8-3.3-1.2-5.1-1.3c-0.3,0.9-0.7,1.7-1.3,2.5
		c2.6,0.8,9.2,8.1-4.6,19.3c1.2,0.8,4.9,3.4,0.2,11.8c-1.7,3.1-5.8,8-10.7,13.1c-11,11.4-26,24.5-39.2,24.6c-1.6,0-3.2-0.1-4.8-0.3
		c1.2,0.4,2.4,0.8,3.7,1c10.2,2,20-2,29.9-6.2c5.1-2.2,8.3-4.1,13.8-7.2c4.3-2.4,10-5,13.8-8.2c1.4-1.2,3.8-3.4,4.1-5.4
		c0.3-1.6-1.9-4.6-3.8-4.5c-0.6,0-1.1-0.1-1.6-0.2c1.8-0.3,3.6-0.8,5.3-1.5c3.7-1.4,11.5-6,10.9-10.9
		C106,43.2,105.2,41.5,103.2,41.4z"/>
	<g>
		<path class="st3" d="M20.7,37.4c0.3,0,0.7-0.1,1-0.3c1.4-0.9,2.8-2.1,4.2-3.5c3.3-3.1,6.5-6.3,9.7-9.5l0.1-0.1
			c5.6-9.4,3.1-14,1.8-15.5c-0.7-0.8-1.5-1.3-2.3-1.6c-0.3-0.1-0.6-0.2-1-0.1c-0.2,0-0.4,0-0.6,0.1l-0.6,0.6l0.6-0.4
			C33.8,7.1,34,7,34.2,7c0,0,0,0,0,0c0.2,0,0.5,0,0.8,0.1c0.4,0.2,0.8,0.4,1.1,0.9c0.7,1,1.1,2.3,1,3.5c0,4.7-3.2,8.9-6.6,12.7
			c-2.5,2.8-5.1,5.5-7.6,8c-0.6,0.7-1.3,1.3-1.9,2c-0.7,0.7-1,1.3-1.2,2c-0.1,0.4,0,0.7,0.2,0.9C20.2,37.3,20.4,37.4,20.7,37.4z"/>
		<path class="st3" d="M43.1,34.5c0.1,0,0.2,0,0.3,0c1.2,0,2.7-1.7,3.6-2.6l0,0c1.4-1.5,2.9-2.9,4.4-4.3c3.4-3.1,7.3-6.1,11.9-9.2
			c3.6-2.4,7.6-4.6,12.3-6.8l0,0c1.6-1.7,2.3-3.4,2.1-5c-0.2-1.6-1.2-3.1-3-4.4l-0.1,0.2c0.9,0.9,1.3,2.1,1.1,3.3l0,0
			c-0.1,0.8-0.5,1.6-1.1,2.2c-0.6,0.6-1.2,1-2,1.3c-5.1,2.6-9.6,5.2-13.7,8.2c-3.7,2.7-7.5,5.8-11.2,9.3c-1.4,1.4-2.8,2.8-4.1,4.3
			c-0.6,0.7-1.4,2-1.2,2.9C42.4,34.2,42.7,34.4,43.1,34.5z"/>
		<path class="st3" d="M93.1,24.6c-0.5-2.7-2.4-4.5-3.7-4.9c1.4-2,1.8-3.8,1.4-5.6c-0.9-3.2-4.7-4.9-4.8-4.9l-0.7,0l0.5,0.2
			c1.6,0.6,2.5,2.1,2.3,3.7c-0.3,4.2-4.9,6.6-8.6,8.5c-0.7,0.4-1.3,0.7-1.9,1c-4.8,2.8-9.3,5.9-13.3,9c-3.6,2.9-7.4,5.8-10.9,9
			c-0.7,0.6-2.3,2.6-2.1,3.5c0,0.2,0.2,0.4,0.5,0.5c1.4,0.4,3-0.9,4-1.8c0.2-0.1,0.3-0.3,0.4-0.4c6.3-5.4,14.7-12.2,24.2-17.3
			c0.4-0.2,0.9-0.5,1.4-0.8c1.4-0.9,3-1.8,4.3-2.2c2-0.5,3.1,0,3.9,1.6c2.2,5.3-6.5,11.7-7.5,12.4c-1.9,1.5-4,2.8-6,4.1
			c-1.9,1.2-3.8,2.4-5.6,3.8c-3.8,2.9-7.6,6.1-11.6,9.9c-0.3,0.3-0.6,0.5-0.9,0.8c-0.9,0.9-2,1.8-2.5,2.9c-0.3,0.7-0.4,1.1-0.2,1.4
			c0.1,0.3,0.4,0.4,1,0.5c0.7,0,1.4-0.3,2-0.8c1-0.8,2-1.7,2.8-2.6c0.6-0.6,1.2-1.2,1.9-1.7c9.2-7.7,16.3-13.1,18.2-13.6
			c0.7-0.2,1.3-0.2,1.7,0.1c0.7,0.5,1,1.4,1,2.1c0.2,1.8-1.2,4.3-2.4,6.2c-1.9,3-4.9,5.9-7.9,8.7C73,59.2,72,60.2,71,61.2
			c-1.1,1.1-2.1,2.1-3,3.1c-2.8,2.9-5,5.1-8.2,7.7c-7.6,6.3-16.3,13.4-26.9,14.3c-8.1,0.8-16.4-2.6-22.7-9.1L10,77.4
			c6.2,7.1,15.3,11.2,25,11.2c10.5-0.2,23.7-8.5,39.3-24.7c5.2-5.4,9.1-10.2,10.7-13.1c3.1-5.7,3.1-9.6-0.1-11.9
			C92.7,32.5,93.7,27.6,93.1,24.6z"/>
	</g>
	<path class="st4" d="M1.6,61.7C-0.1,52.5,1.8,42.9,7,35.2c5.9-9.3,14.7-16.6,22.2-24.5c1-1.1,2.1-2.2,3.1-3.2
		c0.5-0.6,1.2-0.8,2-0.8c0.7,0.1,1.4,0.5,1.8,1.1c0.7,1,1.1,2.3,1,3.6c0,4.9-3.5,9.3-6.6,12.8s-6.3,6.7-9.5,10c-0.6,0.6-1,1.2-1.2,2
		c-0.3,1,0.8,1.2,1.7,0.7c1.5-1,2.9-2.2,4.2-3.5c6.7-6.3,12.9-13,19.9-18.9c4.1-3.5,8.5-6.6,13.1-9.3c4-2.2,9.2-4.9,13.9-3.9
		c1,0.1,1.9,0.7,2.5,1.5s0.8,1.8,0.7,2.8c-0.1,0.9-0.5,1.7-1.1,2.3s-1.2,1-2,1.3c-4.8,2.4-9.4,5.1-13.7,8.2c-3.9,2.8-7.7,6-11.2,9.3
		c-1.4,1.4-2.8,2.8-4.1,4.3c-0.9,1-1.9,3-0.5,3.4c1.2,0.3,2.9-1.7,3.8-2.6c1.4-1.5,2.9-2.9,4.4-4.3C55,24.1,59,21,63.2,18.3
		c4.6-3,9.4-5.6,14.5-7.7c2.3-1,4.4-1.9,7-1.6c2.2,0.1,3.8,1.9,3.8,4.1c-0.4,5-6.9,7.5-10.6,9.6c-4.6,2.7-9.1,5.7-13.3,9
		c-3.7,2.9-7.4,5.8-10.9,9c-0.9,0.8-3,3.5-1.6,3.8c1.6,0.4,3.3-1.3,4.3-2.1c7.5-6.4,15.5-12.6,24.2-17.3c1.6-0.9,3.9-2.5,5.7-3
		c1.9-0.5,3.2-0.1,4,1.7c1.9,4.6-4.3,10.2-7.5,12.5c-3.7,2.8-7.8,5.1-11.6,7.9c-4.1,3.1-7.9,6.4-11.6,9.9c-1.1,1.1-2.7,2.3-3.3,3.7
		c-0.4,1-0.5,1.6,0.7,1.8c0.7,0,1.4-0.3,1.9-0.8c1.7-1.3,3.1-2.9,4.7-4.3c9.6-8.1,16.4-13.1,18.2-13.6c1.8-0.6,2.7,0.6,2.9,2.3
		c0.2,2-1.4,4.7-2.4,6.3c-2.7,4.2-7.5,8.2-11,11.8c-4.5,4.5-7,7.3-11.2,10.8c-8.3,6.8-16.6,13.4-27,14.3C22.8,87.3,13.2,82.1,7.3,74
		c0.3,0.5,0.5,0.7-0.1-0.1l-0.1-0.2C4.7,70.4,2.2,65.7,1.6,61.7z"/>
	<path class="st3" d="M20.8,44L20.8,44c1,0,1.8,0.8,1.8,1.7v19.7c0,1-0.8,1.7-1.8,1.7l0,0c-1,0-1.8-0.8-1.8-1.7V45.7
		C19,44.8,19.8,44,20.8,44z"/>
	<path class="st3" d="M29.3,44L29.3,44c1,0,1.8,0.8,1.8,1.7v19.7c0,1-0.8,1.7-1.8,1.7l0,0c-1,0-1.8-0.8-1.8-1.7V45.7
		C27.6,44.8,28.4,44,29.3,44z"/>
	<path class="st3" d="M37.9,44L37.9,44c1,0,1.8,0.8,1.8,1.7v19.7c0,1-0.8,1.7-1.8,1.7l0,0c-1,0-1.8-0.8-1.8-1.7V45.7
		C36.2,44.8,36.9,44,37.9,44z"/>
</g>
</svg>
