<?xml version="1.0" encoding="utf-8"?>
<!-- Generator: Adobe Illustrator 24.2.1, SVG Export Plug-In . SVG Version: 6.00 Build 0)  -->
<svg version="1.1" id="Layer_1" xmlns="http://www.w3.org/2000/svg" xmlns:xlink="http://www.w3.org/1999/xlink" x="0px" y="0px"
	 viewBox="0 0 128 104" style="enable-background:new 0 0 128 104;" xml:space="preserve">
<style type="text/css">
	.st0{fill:#E5A173;}
	.st1{fill:#A07A84;}
	.st2{fill:#C1603E;}
	.st3{fill:#C66B47;}
	.st4{fill:#FFCD9C;}
</style>
<g>
	<path class="st0" d="M93.3,36.7c2.9-1.8,4.7-4.9,5-8.3c0.1-2.4-2.7-6.9-7.2-3.9c-0.2,2.5,0.6,4.4-1.2,6.3
		C92,31.5,92.7,34.7,93.3,36.7z M99.7,39.4c-0.9-1.8-3-1.9-4.2-1.6c-1.1,0.6-2.2,1.2-3.2,1.9c0.2-0.3,0.4-0.6,0.5-0.9
		C87.3,43,87.6,48,84,50.7c2,1.4,0.5,9,3.3,6.2c0.3-0.2,0.7-0.5,1-0.7c-0.7,0.6-1.3,1.5-2.4,2.6c-0.2,0.2,0.6,0.7,0.4,0.8
		c-0.2,0.2-0.6,1.3-0.8,1.5c-2.7,4.7-8,7.6-11.9,11.3s-8,6.8-11.9,10.6s-8.3,5.6-13,8.4c-6.5,3.8-13.8,4.8-21,7.1
		c5.6,4.7,12.4,5.5,18.3,5.1c8.8-0.6,19.8-8,26.9-15.3c3.8-4,12.5-11.3,19.6-23.6c1.1-1.8,1.7-3.8,1.7-5.8s-0.9-4.6-3.8-3.9
		c-0.4,0.1-0.8,0.2-1.1,0.4c1.6-1.2,3.2-2.6,4.5-3.6C96.8,49.3,101.8,44,99.7,39.4z"/>
	<polygon class="st1" points="7.4,84.7 7.3,84.5 7.6,84.8 	"/>
	<path class="st2" d="M117.3,13.6c-0.8,0.5-4.5,2.9-4.2,0.2c0.3-1,0.7-1.9,1.3-2.7c0.5-0.9,1-1.8,1.5-2.8c1-1.9,2-4.4,3.4-5.9
		c1.3-1.4,3.1,0.2,4.2,1.1s3.6,3.6,2.4,5.2c-0.7,0.7-1.6,1.2-2.5,1.5L117.3,13.6z M107.1,10.2c-0.4,1.1-1.4,0.9-1.9,0
		c-0.3-0.7-0.6-1.5-0.8-2.3c-0.3-1.3-0.6-2.6-0.9-4c-0.3-1.7-0.8-3.4,1.4-3.8c1.5-0.3,3.9-0.1,5,1.1s-0.5,3.3-1,4.5
		C108.4,7.2,107.8,8.7,107.1,10.2z M124.9,25c-1.7-0.2-3.5-0.5-5.2-1c-0.8-0.1-1.6-0.3-2.4-0.7c-2-1.4,1.4-2.5,2.2-2.9
		c1.1-0.5,2.3-1,3.4-1.5c1.5-0.6,3.2-1.7,4.2,0.1c0.7,1.5,0.8,3.2,0.3,4.8C127,25.3,126.1,25.2,124.9,25z"/>
	<g>
		<path class="st3" d="M48.2,46.7c0.1,0,0.3,0.1,0.4,0.1c1.2,0,2.3-1.3,3.1-2.3c0.1-0.1,0.2-0.3,0.3-0.4c1.4-1.5,2.9-2.9,4.4-4.3
			c3.4-3.1,7.3-6.1,11.9-9.2C72,28.2,76,26,80.6,23.8l0,0c1.6-1.7,2.3-3.4,2.1-5c-0.2-1.6-1.2-3.1-3-4.4l-0.1,0.2
			c0.9,0.7,1.3,1.8,1.1,3.1l0,0c-0.1,0.8-0.5,1.6-1.1,2.3c-0.6,0.6-1.2,1-2,1.3c-4.9,2.5-9.4,5.2-13.7,8.3c-4.1,3-7.9,6.1-11.2,9.3
			c-1.4,1.4-2.8,2.8-4.1,4.3c-0.6,0.7-1.4,2-1.2,2.9C47.5,46.4,47.8,46.6,48.2,46.7z"/>
		<path class="st3" d="M25.7,49.4c0.3,0,0.7-0.1,1-0.3c1.4-0.9,2.8-2.1,4.2-3.5c3.3-3.1,6.5-6.3,9.7-9.5l0.1-0.1
			c5.6-9.4,3.1-14,1.8-15.5c-1.3-1.5-2.9-2-3.8-1.6l-0.5,0.5l0.5-0.2c1-0.4,2-0.1,2.6,0.8l0,0c0.7,1,1.1,2.3,1,3.5
			c0,4.7-3.2,8.9-6.6,12.7c-2.5,2.8-5.1,5.5-7.6,8c-0.6,0.7-1.3,1.3-1.9,2c-0.7,0.7-1,1.3-1.2,2c-0.1,0.4,0,0.7,0.2,0.9
			C25.2,49.3,25.4,49.4,25.7,49.4z"/>
		<path class="st3" d="M6.2,68.4H6v0.2c0,0.7,0.1,1.4,0.2,2.1l0,0.2l0.1,0c0,0,0,0,0,0c0,0,0,0,0,0l0.1,0
			C6.3,70.1,6.2,69.2,6.2,68.4z"/>
		<path class="st3" d="M98.2,36.5c-0.5-2.7-2.4-4.4-3.7-4.9c1.4-2,1.8-3.8,1.4-5.6c-0.9-3.2-4.7-4.9-4.8-4.9l-0.7,0l0.5,0.2
			c1.6,0.6,2.5,2,2.4,3.6c-0.2,4.1-4.9,6.5-8.6,8.5c-0.7,0.4-1.4,0.7-2,1.1c-4.8,2.8-9.3,5.9-13.3,9c-4.1,3.1-7.7,6.1-10.9,9
			c-0.7,0.6-2.3,2.6-2.1,3.5c0,0.2,0.2,0.4,0.5,0.5c1.2,0.3,2.7-0.3,4.5-1.7c7.8-6.6,15.5-13,24-17.6c0.5-0.3,1.1-0.6,1.7-1
			c1.3-0.8,2.7-1.6,3.9-1.9c2-0.5,3.1,0,3.9,1.6c0.8,1.9,0.2,4.3-1.8,6.9c-1.8,2.4-4.2,4.4-5.6,5.4c-1.8,1.3-3.7,2.6-5.6,3.8
			c-2,1.3-4.1,2.7-6,4.1c-3.8,2.9-7.6,6.1-11.6,9.9c-0.3,0.3-0.6,0.5-0.9,0.8c-0.9,0.9-2,1.8-2.5,2.9c-0.3,0.7-0.4,1.1-0.2,1.4
			c0.1,0.3,0.5,0.4,1,0.5c0.7,0,1.4-0.3,2-0.8c1-0.8,2-1.7,2.9-2.6c0.6-0.6,1.2-1.2,1.9-1.7c9.1-7.6,16.2-12.9,18.2-13.6
			c0.7-0.2,1.2-0.2,1.7,0.1c0.6,0.4,1,1.1,1.1,2.1c0.2,1.9-1.2,4.3-2.4,6.2c-1.9,3-4.9,5.9-7.9,8.7c-1.1,1.1-2.2,2.1-3.1,3.1
			c-1.5,1.5-2.8,2.7-4.1,4c-2.4,2.4-4.5,4.5-7.3,6.8C55.7,91.7,47.9,97.5,38,98.4c-8.1,0.7-16.4-2.6-22.7-9.1l-0.1,0.1
			c6.3,7.1,15.4,11.2,24.9,11.2c10.5-0.2,23.7-8.5,39.3-24.7c5.2-5.4,9.1-10.2,10.7-13.1c3.1-5.7,3.1-9.6-0.1-11.9
			C97.8,44.5,98.8,39.6,98.2,36.5z"/>
	</g>
	<path class="st4" d="M6.6,73.6c-1.7-9.2,0.3-18.7,5.5-26.5c5.9-9.4,14.7-16.6,22.2-24.5c1-1.1,2.1-2.1,3.1-3.2
		c0.5-0.6,1.2-0.8,2-0.8c0.7,0.1,1.4,0.5,1.8,1.1c0.7,1,1.1,2.3,1,3.6c0,4.9-3.5,9.3-6.6,12.8s-6.3,6.7-9.5,10c-0.6,0.6-1,1.2-1.2,2
		c-0.3,1,0.8,1.2,1.7,0.7c1.5-1,2.9-2.2,4.2-3.5c6.7-6.2,12.8-13,19.9-18.8c4.1-3.5,8.5-6.6,13.1-9.3c4-2.2,9.1-4.9,13.9-4
		c1,0.1,1.9,0.7,2.5,1.5s0.8,1.8,0.7,2.8c-0.2,0.9-0.5,1.6-1.1,2.3c-0.6,0.6-1.2,1-2,1.3c-4.8,2.4-9.3,5.1-13.6,8.3
		c-3.9,2.8-7.7,5.9-11.2,9.3c-1.4,1.4-2.8,2.8-4.1,4.3c-0.9,1-1.9,3-0.5,3.4s2.9-1.6,3.8-2.6c1.4-1.5,2.9-2.9,4.4-4.3
		c3.7-3.4,7.7-6.4,11.9-9.2c4.6-3,9.4-5.6,14.4-7.7c2.3-0.9,4.4-1.9,7-1.6c2.2,0.1,3.9,1.9,3.8,4.1c-0.3,5-6.9,7.5-10.6,9.6
		c-4.6,2.7-9.1,5.7-13.3,9c-3.7,2.9-7.4,5.8-10.9,9c-0.9,0.9-3,3.5-1.6,3.8c1.6,0.4,3.3-1.3,4.3-2.1c7.5-6.4,15.5-12.5,24.2-17.3
		c1.6-0.8,3.9-2.5,5.7-2.9c1.9-0.5,3.2-0.1,4,1.7c1.9,4.6-4.3,10.1-7.4,12.5c-3.8,2.8-7.9,5.1-11.6,7.9c-4.1,3.1-7.9,6.4-11.6,9.9
		c-1.1,1.1-2.7,2.3-3.3,3.7c-0.4,1-0.5,1.6,0.7,1.8c0.7,0,1.4-0.3,1.9-0.8c1.7-1.3,3.1-2.9,4.7-4.3c9.7-8.1,16.4-13,18.2-13.6
		c1.8-0.6,2.7,0.7,2.9,2.3c0.2,2-1.4,4.7-2.4,6.3c-2.7,4.2-7.5,8.3-11,11.8c-4.5,4.5-6.9,7.3-11.2,10.8c-8.3,6.8-16.6,13.4-27,14.3
		C27.8,99.3,18.2,94,12.3,85.9c0.3,0.5,0.5,0.7-0.1-0.1c-1.7-2.4-0.8-1.1-0.1-0.2C9.7,82.3,7.2,77.6,6.6,73.6z"/>
	<path class="st3" d="M25.8,56L25.8,56c1,0,1.8,0.8,1.8,1.8v19.7c0,1-0.8,1.8-1.8,1.8l0,0c-1,0-1.8-0.8-1.8-1.8V57.8
		C24,56.8,24.8,56,25.8,56z"/>
	<path class="st3" d="M34.3,56L34.3,56c1,0,1.8,0.8,1.8,1.8v19.7c0,1-0.8,1.8-1.8,1.8l0,0c-1,0-1.8-0.8-1.8-1.8V57.8
		C32.6,56.8,33.4,56,34.3,56z"/>
	<path class="st3" d="M42.9,56L42.9,56c1,0,1.8,0.8,1.8,1.8v19.7c0,1-0.8,1.8-1.8,1.8l0,0c-1,0-1.8-0.8-1.8-1.8V57.8
		C41.1,56.8,41.9,56,42.9,56z"/>
</g>
</svg>
