<svg xmlns="http://www.w3.org/2000/svg" viewBox="0 0 69.78 104.14"><g id="Ebene_2" data-name="Ebene 2"><g id="Ebene_1-2" data-name="Ebene 1"><path d="M13.16,53.06c-.12-1.55.14-1.85-.54-3.3-.3-.63-.78-.81-1.31-.33a2.83,2.83,0,0,0-.78,2c-.08,2.11-.09,1.3-.19,3.41-.19,4.15-5.21,4.7-7.94,2.65,1.44,3.24,5.62,4.42,9.52,2.16a4,4,0,0,0,1.68-2.14C13.37,56.24,13.29,54.75,13.16,53.06Z" fill="#c66b47"/><path d="M41.87,61.34c-.17-2,0-5-.29-6.91-.19-1.36-1-2.11-1.68-1.53-.5.42-.76,2-.76,3.31,0,1,.11.11.11,4.11,0,4.6-8.06,4.94-10.59,1.72A7.94,7.94,0,0,0,40,65.43c1-.74,1.54-2.29,1.85-4C41.88,61.39,41.87,61.37,41.87,61.34Z" fill="#c66b47"/><path d="M27.92,59.88c0-1,.14.57-.11-4.12-.07-1.25-.37-2.62-1.78-2.66-.87,0-1.29.62-1.22,1.89.21,4.33-.23,8.33-6.35,7.31a7.37,7.37,0,0,1-2.35-.76c1.58,3.15,4.77,3.37,7.14,3.34A7,7,0,0,0,28,60.77,3.68,3.68,0,0,1,27.92,59.88Z" fill="#c66b47"/><path d="M54.19,37.36,54,36a5.13,5.13,0,0,0-.76-2.21c-.54-.84-1.41-.14-1.57.88a22.42,22.42,0,0,0,.06,5.46c.6,9.1,1.32,18.16,1.37,27.33,0,5.34.51,10.63.48,16,0,7.91,0,14.18-3.72,17.24a3.73,3.73,0,0,1-4.9.14c1.37,2.76,3.34,3.55,4.69,3.3,5.45-1,7-8,7.23-13.21.17-4.16-.35-16.3-.89-27.12C55.47,52.57,54.32,41.49,54.19,37.36Z" fill="#c66b47"/><path d="M68.36,46.76c-.76-15-5.85-29.62-11.87-35.06a30.32,30.32,0,0,1,5.2,10.06c3.51,10.44,4,24.56,5.29,35.4.18,1.47.37,3,.49,4.44a2.38,2.38,0,0,1-2.63,2.73A3.93,3.93,0,0,1,63.23,64,6.92,6.92,0,0,0,66.4,66.1C72.32,68.25,68.73,54.06,68.36,46.76Z" fill="#c66b47"/><path d="M45.92,3.43c9,5.25,12.69,9.15,15.77,18.33,3.51,10.44,4,24.56,5.29,35.4.18,1.47.37,3,.49,4.44a2.38,2.38,0,0,1-2.63,2.73,5.8,5.8,0,0,1-3.39-1.48c-3.78-3.13-5-8.6-5.71-13.23S54.55,40.52,54,36a5.13,5.13,0,0,0-.76-2.21c-.54-.84-1.41-.14-1.57.88a22.42,22.42,0,0,0,.06,5.46c.6,9.1,1.32,18.16,1.37,27.33,0,5.34.51,10.63.48,16,0,7.91,0,14.18-3.72,17.24a3.69,3.69,0,0,1-5.3-.25A4.66,4.66,0,0,1,43.49,98a43.26,43.26,0,0,1-.74-4.32c-.17-7.4-.39-11.53-.39-17.62,0-4.86-.08-9.92-.49-14.76-.17-2,0-5-.29-6.91-.19-1.36-1-2.11-1.68-1.53-.5.42-.76,2-.76,3.31,0,1,.11.11.11,4.11,0,5.45-11.33,4.92-11.33-.44,0-1,.14.57-.11-4.12-.07-1.25-.37-2.62-1.78-2.66-.87,0-1.29.62-1.22,1.89.21,4.33-.23,8.33-6.35,7.31-5-.84-4.91-4.18-5.3-9.24-.12-1.55.14-1.85-.54-3.3-.3-.63-.78-.81-1.31-.33a2.83,2.83,0,0,0-.78,2c-.08,2.11-.09,1.3-.19,3.41-.26,5.54-9.12,4.67-9.65-.24A85.93,85.93,0,0,1,0,42C0,31.26.15,20.63,6,12,11.7,3.59,21.84-.47,31.84,0H32c2.94.17,1.38.08.21,0C36.25.33,42.42,1.38,45.92,3.43Z" fill="#ffcd9c"/></g></g></svg>