<?xml version="1.0" encoding="utf-8"?><svg xmlns="http://www.w3.org/2000/svg" xmlns:xlink="http://www.w3.org/1999/xlink"><symbol viewBox="0 0 579 579" id="ghs01" xmlns="http://www.w3.org/2000/svg"><path fill="#fff" d="M25.3 289.7l264 264 264.1-264c-88-88-176-176.2-264-264l-264.1 264z"/><path fill="red" d="M147.7 148L6 289.7l141.7 141.6L289.3 573 431 431.3l141.7-141.7L431.1 148A289088 289088 0 00289.4 6.3L147.7 148zm261 22.4l119.1 119.2L408.6 409 289.3 528 170.1 409 51 289.6l119.2-119.2L289.4 51.2l119.2 119.2z"/><path d="M314.8 137.3l-.2.2-20 57.1-20 57c-.2.2-1-.1-1-.2l23.8-73.8-2.1-1.4c-2.2-1.2-2.4-1.4-2.4-1.2l-19.6 76.3-1.2-.3a42.8 42.8 0 00-13.4-1.2c-7.7 1.2-14 4.4-19.5 10a36.8 36.8 0 00-9 15.6l-6.6-4.9-6.7-5 .8 1.7.8 1.7 5.7 3.8c5.6 3.7 5.7 3.9 5.7 4.1a302.8 302.8 0 004.1 4.7l.6.6h1.7l1.6-.2 3.2 2.1 2.9 1.9a128.4 128.4 0 00-5.2-4l4.9-.3 4.7-.2 6.8 3.4 7 3.4a241.4 241.4 0 007.7-9.3s-.2-.8-1.7-4.3a120 120 0 01-1.7-4.3 357.5 357.5 0 0110.7 1l.8-3.1.8-3.2h5.5l.8.1-8 8.8-8.3 9c-.3.5 2.9-2.8 10.4-10.3l7.3-7.5h2.8l2.7-.1-.5-.7a30.7 30.7 0 00-1.7-2.4l2.2-2.3 2.3-2.3.2.5.2.6c0 .2.2.2 4-1.6l3.5-1.5a49.2 49.2 0 011.6 5.3l11.9-9.5a330 330 0 006.5-12.1l-5.2 4.3-5.2 4.2-3.7.1h-4c-.2 0 1.8-2 34.4-35l34.7-35a44.2 44.2 0 00-4.1-3.9l-35.3 38.4-35 38.2-2.8 2-2.9 2 .2.8c.3.6.3.7.2.8 0 .2-3.7 4.2-4.4 5-.2.1-.2.1-1-.7a33.8 33.8 0 00-5-4l-.9-.7 17.4-29.8c13.7-23.5 17.3-29.9 17.3-30l-2-1.2-1.9-1.2-.3.6-15.7 31a2341 2341 0 01-15.4 29.7l20.5-57.1 20.3-56.7-7.5-3.6h-.1zm-34.5 43.6l-1 2.4-.9 2.5-1.9-.8c-1-.4-1.8-.7-1.9-.6l-1 4.5-.9 4.7 1.9 1 2 1a96.7 96.7 0 012.1 7.4l1.7-2.5c1.8-2.6 1.8-2.6 7.4-8.7l.3-.3-1.6-5.2-1.6-5.3h-.7l-2.3-.1h-1.6zm128.9 23.3l-.2.2a855 855 0 01-3.3 10.3l-4.5.3-4.5.1-1.2 1-1.3 1-1.2 7.7 7 4a176.4 176.4 0 005.6-6l5.6 3.8 5.5 3.8V222l-.1-5.4-3.7-6.2-3.7-6.3zm-94 3.8l-.2.2-1.3 1.8-1.1 1.6-.7 3.5-.7 3.7a47.4 47.4 0 005 4.4l1.9-2.1 1.8-2.2.4-2 .5-2.4v-.6l-1-2.9a90 90 0 00-1.1-3l-1 .9-.7.9-1-.9-.8-.9zm57.7 5.2a17979.8 17979.8 0 00-92.6 65.3l46.4-28.8L373 221v-7.8zm-9.1 25.5l-1.9 2.1-1.9 2-.9 2.5-.9 2.4 16.6 2-5.5-5.5-5.5-5.5zm76 1.5a40036 40036 0 00-163 42.2L442 245l-2.4-4.8zm-96 11.1a8732.5 8732.5 0 00-54.3 25.8l54.7-21.2a55.6 55.6 0 00-.4-4.6zm118 5.7l-89.5 15.2a59234 59234 0 01-89.6 15.2l-1.2-.9-1.2-.9v7.4l-2.9 1.9-3 1.9-2.6-1.8c-3.7-2.7-3.7-2.7-.2 0l2.5 2s-4.4 3.1-4.6 3.1l-14-11.9-.6-.6-5.2 4.5-5.2 4.5-6.5-1.7-6.4-1.7h1.8l3.3.1c1.5 0-2.7-.2-7.8-.6l-11.2-.7-9.6-.6v-.3c0-.3 0-.3-.8 0a96.7 96.7 0 01-5 0l-.5-.2-.4-.8-.5-.8-3.2-.2-3.7-.1h-.5l-.4.6-.4.7h-.5a5372.4 5372.4 0 01-43.8-2.8h-.4l1.1 1.2c1 1 1.2 1.2 1.5 1.2a7025.6 7025.6 0 0041.2 1.7l-1 1.8-1 1.8 3 2.2 3 2.1 3.2.5c1.8.4 3.3.6 3.4.5l1-1.6 1-1.6h4.1v-.4a51.7 51.7 0 00-.2-4.6l20.9.8c.2 0 .3 0 .3.3l.9 3.8c.3 1.1.3 1.1 0 1.2l-55.5 6.3-55.5 6.4-.2 2.5L175 306l55.7-7.5.4.6.6 1.5.3 1a31133.7 31133.7 0 01-83.3 18.4c-.2.1-.3.4-.5 1.5-.2.7-.3 1.3-.2 1.4l84-20.9.4.6.2.6-14.1 3.8-14 3.7-.1 1.4-.2 1.5 14.5-4.8c14.4-4.7 14.5-4.8 14.6-4.4l-22.7 12.3L188 329v.9l.1 1.2.1.4 22.5-13.3 22.7-13.3s.3.2.9 1.2a38 38 0 002.6 3.8c.4.5.4.5.3.6l-26.5 21.2-26.3 21 1.9 1.8 2 2 15.7-14.3 15.6-14.3-.2.6-.3.7 3.2 3.6c.1.2.2.2 2-.7l1.9-.8 1 1 .9.9 1.9-1.2 1.9-1.1.7-2.4.7-2.6-1.7-1.2-1.7-1.1h-2.8l-2.7-.1 6.8-6.2a925 925 0 016.7-6.1 78.7 78.7 0 014.3 4 31.8 31.8 0 0043.1-2.3l1.2-1.2 18 14.5 18 14.5-1-2.5-1.2-2.5-16.7-12.2-16.7-12.3.3-.4a37.3 37.3 0 001.9-2.2 8555.3 8555.3 0 0145 35.2l.4.3 1.1-1.1 1.1-1.2-23.4-16.9-23.5-17c-.1-.2-.1-.2.4-1.1l.7-.9a5642.2 5642.2 0 0142.4 25.8l-1.2-2.4-1.1-2.3-19.9-11-19.8-10.8.6-1.4 1-2 .4-.7 12.3 3.1a779 779 0 0112.3 3.3c.1 0-.8 1.4-1 1.4l-3.6-.7-3.7-.6c-.1 0-.5.6-1.2 1.9l-1 1.9 2.4 1.8 3.8 2.8 1.4 1 10 1.8c5.5 1 10 1.7 10.1 1.6l.3-4.2v-.6l-1.6-1.9-1.7-1.9-2-.8-2-1a2165.9 2165.9 0 0128.7 7.3 613.2 613.2 0 011.2-8.4 10722 10722 0 00-64.2-9.1l.5-1.4.4-1.6c0-.1-.6-.4-2.4-1l-2.5-.9-.5-.9-.5-.9 30.9 1.5 30.7 1.4.3.3.2.2 5.6.4 5.6.4.3-.4.3-.3 39.4 1.9 39.3 1.8-1.6-1.3-1.6-1.3-37-1.1-37.3-1.2s1-1.4 2.7-3.2l2.8-3.3a1212 1212 0 00-19.9-8.8l-2.7 2.5-2.6 2.5-3.8 1.3-3.8 1.3.9 3.4.8 3.4a3229.5 3229.5 0 01-49.5-1.5l-.5-.7c-.5-.7-.5-.8-3.1-2.8l-2.7-2.1.6-.1 89.6-12.2 89.2-12V257h-.2zm-251.5 14.7v.1l.4 1 .3.8 14.8 7.1c8.1 4 14.8 7.1 14.8 7.1L226 280l-15.2-8-.5-.3zm-13 8.7a31.2 31.2 0 00-2.7 2.4l44 6.9-41.3-9.3zm41.7 9.3h-.1c0 .1 0 .1.1 0 .1 0 0 0 0 0zm-36.6 2.2h.7l.9.1c.2 0 .2 0-.3.2-1 .4-1 .4-1.1 0l-.2-.3zm145.3 1.2l1 1 .9 1-1.6-.1-3.9-.1c-1.2 0-2.2-.1-2.1-.2l5.7-1.6zm-109 .2c0 .1 0 .1.2 0h-.2zm-72 2.9l-3 2.1-2.9 2.1v1.2c0 1.1 0 1.2.2 1.2.3 0 15.7 1.5 15.9 1.4 0 0-10-8-10.2-8zm19.1 18.4l5.9 5.6 2.1-.8 2-.8v-3.5h-.2a826.9 826.9 0 01-9.8-.5zm-21.2 14.7l-.1.1-1 3.4-1 3.3.3.4 5.7 7.8.5-1 .9-2.6.5-1.6h.4l1.8-.1h1.4l1.1-1.3 1.2-1.2.6-1.8.5-1.9-5.4-2-1 1-.8 1a95.9 95.9 0 01-5.6-3.5z"/></symbol><symbol viewBox="0 0 579 579" id="ghs02" xmlns="http://www.w3.org/2000/svg"><path fill="#fff" d="M25.3 289.7l264 264 264.1-264c-88-88-176-176.2-264-264l-264.1 264z"/><path fill="red" d="M147.7 148L6 289.7l141.7 141.6L289.3 573 431 431.3l141.7-141.7L431.1 148A289088 289088 0 00289.4 6.3L147.7 148zm261 22.4l119.1 119.2L408.6 409 289.3 528 170.1 409 51 289.6l119.2-119.2L289.4 51.2l119.2 119.2z"/><path d="M289.5 121.4c-17.6 33.6 3.9 52.5-19.7 102-12.6-10-5.3-47.4-30.2-48 3.8 11.4 1 15.9.3 20-2.5 16.1-8.2 30.5 3 51.9-17.2-8.4-17.5-23.7-32-33.3 2.9 16.3-4 49.3 15.3 81-17.2-1.7-23-8.3-41.5-26.2 19.4 100.5 33.8 103.3 105 109a66.1 66.1 0 01-54.2-47.6c-.8-10.2-1.2 9 33.3 9.6-21.8-34.5-15.9-28-13.3-48.1 9 13.8 1 15 26.6 25.2-8-25.7 12.5-43.3 8-72.7 5.7 12.9 25.8 10.9 24.8 72.8 16.6-18.6 18.6-5.7 26.6-26.5.4 11.6 5.5 26-17 49.6 5.7 1.6 15.3 2.9 31-7.7-15.3 17.3-1.5 17.7-40 46 48.5.6 80.3-30 79.2-97-1.3 5.7-2.7 17.1-28.9 20.6a69 69 0 0011.8-75.5c-4.6 4.3-11.7 24.2-29 30 8.8-14.4 6.8-33 6.8-33s2.3-25-12.6-44.4c-4.1 30.4-3.8 45.6-22.9 50.4 3-17.9 3.6-26.2-6-46.7-10-21.3-21.5-42.3-24.4-61.4zm-80 273.8v17.5h170.7v-17.5H209.3z"/></symbol><symbol viewBox="0 0 579 579" id="ghs03" xmlns="http://www.w3.org/2000/svg"><path fill="#fff" d="M25.3 289.7l264 264 264.1-264c-88-88-176-176.2-264-264l-264.1 264z"/><path fill="red" d="M147.7 148L6 289.7l141.7 141.6L289.3 573 431 431.3l141.7-141.7L431.1 148A289088 289088 0 00289.4 6.3L147.7 148zm261 22.4l119.1 119.2L408.6 409 289.3 528 170.1 409 51 289.6l119.2-119.2L289.4 51.2l119.2 119.2z"/><path d="M287 84.6c-8.9 9.5 0 48.8-18.3 85.7-9.5-10-13.3-29-24-38.4 5.7 14.5-10.1 13.2-4.4 63.7-8.6-2.2-8.9-5.7-27.8-28.4 3.5 22 1.3 36 5.7 60.5 0 0-4.5-1-26.5-17 7.1 24-5.3 74.5 23 110.2v-.1c2.1 32.3 25 59 55.3 67h-55v23.3h153v-23.2h-59.7a74.8 74.8 0 0054.1-58c7.5-12 41.1-51 15.3-113.5 0 0-7.6 13.9-21.5 17.6 0 0 17.8-29.6 3.2-53.6 0 0-4.3 17.6-19 18.3 0 0 7.2-37.4-12-61.2-6.9 15.8 4.2 22.3-18.9 35.4-3.1-48.6-13.2-56.8-22.7-88.3zm-5.1 105.9c8.8 5.4 15.2 14.7 17 32.3 1 7.6 3.8 12 5.9 19.9a74.9 74.9 0 00-34.6.8c-1.3-25.5 12-20 11.7-53zm-32.1 18.3s3.5 22.2 12.5 37.2a74.6 74.6 0 00-17.7 9.8c-3-23 3.8-28.3 5.1-47zm78.1 11.4s3.4 22.2 7.9 37.1a74.5 74.5 0 00-24.3-12.9 88 88 0 0116.4-24.3zm-112.8 24.6s6.6 6.7 24.1 15.4a75 75 0 00-15.3 19.3c-2.8-9-6.6-22.4-8.9-34.8zm148.2 8.1c.6 8.3.6 28.3-3.2 39.1v.4a74.6 74.6 0 00-15.7-26.9 112 112 0 0118.9-12.6zm-74.8 8.8a53.4 53.4 0 110 106.8 53.4 53.4 0 010-106.8z"/></symbol><symbol viewBox="0 0 579 579" id="ghs04" xmlns="http://www.w3.org/2000/svg"><path fill="#fff" d="M25.3 289.7l264 264 264.1-264c-88-88-176-176.2-264-264l-264.1 264z"/><path fill="red" d="M147.7 148L6 289.7l141.7 141.6L289.3 573 431 431.3l141.7-141.7L431.1 148A289088 289088 0 00289.4 6.3L147.7 148zm261 22.4l119.1 119.2L408.6 409 289.3 528 170.1 409 51 289.6l119.2-119.2L289.4 51.2l119.2 119.2z"/><path d="M350.1 230.4l-2 .1c-1 .2-185 49.6-185.7 49.9-5.2 2-8.7 7.7-9.8 15.9a45.3 45.3 0 001.1 15.5c3.1 12.6 11 22.6 19.4 24.5 1 .2 3.3.3 4.3 0 .8 0 183.2-49 185-49.6 3.6-1 6.3-3.5 8.2-7.5 1-2.2 1.7-4.3 2.3-7.4a10.9 10.9 0 017.6-9.4c.4 0 9.5-2.5 20.2-5.4l20.1-5.5c4.3-2 6-8.3 3.4-13.7a10 10 0 00-6.5-5.7c-.9-.2-2.3-.1-3.2 0a10712.2 10712.2 0 00-39.6 10.7l-2.2.1c-1.8 0-2.5-.1-4-.7-1.8-.8-3-1.7-4.8-3.9a24.5 24.5 0 00-8.1-6.6c-1.2-.6-2.5-1-3.6-1.2a14 14 0 00-2.1-.1z"/></symbol><symbol viewBox="0 0 735 735" id="ghs05" xmlns="http://www.w3.org/2000/svg"><path fill="red" d="M367.5 727.4l360-360-360-360-360 360z"/><path fill="#fff" d="M367.5 670.3L64.7 367.5 367.5 64.7l302.8 302.8z"/><path d="M233.3 384.1c-11.1 0-17.9-3.9-21.1-10.1h-80v36.5h199.3V374H259c-5 6.3-14.5 10.1-25.7 10.1m18.4-13.6c3.3 0 8-1.6 11.7-9.1.8-1.7 1-3.9 1.2-6.2 0-1.2.3-3.1.5-3.9l1.8-.8c2.2-1 5.3-2.3 6.8-5.5 1-1.8 1.2-3.6 1.2-5.2 0-1.3-.2-2.5-.3-3.7a28.8 28.8 0 01-.2-4.8c.2-2 3.8-6.6 7.2-9.5l-5.1-5.8c-1.5 1.3-9.2 8.4-9.8 14.7-.2 2.4 0 4.5.3 6.4.2 2.2.4 3.5-.1 4.5-.4.6-1.8 1.3-3 1.8-2 .9-4.2 1.8-5.5 4.1-1 2-1.3 4.6-1.5 7 0 1.2-.2 3-.4 3.5l-2 3.2a23 23 0 01-2.8 5.2v4.1"/><path d="M241.7 365.7l4.4 6.3a22.5 22.5 0 008.7-12c.7-2.2.2-4.3-.2-6-.5-2-.8-3.1-.2-4.3a8.5 8.5 0 012.9-3.1c1.4-1.2 3.3-2.6 4.4-5 1.4-3 .6-6.3-.2-9.5-.6-2.2-1.1-4.5-.8-6.3l-7.6-1.3-.2 2.4c0 2.5.6 5 1.2 7.1.3 1.2.7 3 .7 4v.3c-.4.7-1 1.3-2.3 2.2-1.7 1.4-3.8 3-5.1 6-.7 1.6-1 3.2-1 4.6 0 1.8.4 3.4.8 4.7l.3 1.8c-.8 2.5-2.1 5.5-5.8 8M208 350c.5 1 .8 1.8 1 2.7.8.5 2 1.2 2.2 1.6.3.9 0 3.4-.2 5l-.2 1.7c1.8 1.8 4.7 4 6.2 4.7l-2.9 5.8c1.5 2 3.1 4 4.7 5.7l5.6-5.1a34.6 34.6 0 01-6-8.7v-.2c0-.7 0-2 .2-2.8.2-1.6.4-3.2.4-4.8 0-1.4-.2-2.8-.7-4.1-1-2.7-3.4-4.2-5.2-5.4-1.2-.7-2.7-1.7-2.8-2.3v-.5c0-.7.2-1.5.7-2.9a25 25 0 001.4-9.9l-7.7.5c.2 3.2-.4 5-1 7-.7 2-1.3 4-1 6.8v.3c1.8 1 4 2.3 5.3 5"/><path d="M191.8 334.1c.1 1.5-.1 2.6-.4 3.8a11 11 0 00.7 8.2c1.6 3 4.2 4.4 6.2 5.4 1.5.8 2.4 1.2 3 2.2.6 1.1.5 2 .4 3.3-.1 1.6-.3 3.8 1 6.2 2.4 4 8.4 8.1 10.9 9.4l.5-1.1 3-5.8a29.7 29.7 0 01-7.7-6.4c-.2-.2-.2-.5 0-1.7 0-1.2.2-3-.3-5-.3-.8-.6-1.7-1.1-2.6-1.4-2.6-3.5-4-5.3-4.9l-1-.5c-1.7-.8-2.4-1.2-2.7-2-.5-1-.5-1.3 0-3 .2-1.5.7-3.5.5-6.2-.5-5-4.4-9.3-7.6-12.7l-2.3-2.6-6 4.8 2.7 3c2.4 2.6 5.3 5.7 5.5 8.2m34 5.2c0 5.9 1.4 13.8 8.3 13.8 7 0 8.8-9 8.8-12.6 0-3.2-5-16.9-6.1-29.3-1.5 0-2.8-.4-3.9-1.1-1 13.9-7.1 23.8-7.1 29.2"/><path d="M334.1 227.5a6993 6993 0 00-90.7 16.1c-9.8 1.9-12.1-7-16.6-9.1 0 0 6.7 38.8 7 41.7 1.4 10.4-5.7 15.7-5.7 23.5 0 2.8 1.2 8 4.8 10.3 1 .7 2.4 1.2 3.9 1.2h.1c6.8 0 8.2-6.7 8.2-11.8 0-8-3.8-12.5-3.8-14.4s1.5-4.2 7.6-5.2 82.1-14.1 94.1-16 21-11.8 19-22c-2-10-12.7-16.7-27.9-14.3m5.2 28.3c-10.2.7-99.7 9.3-99.7 9.3l-1.9-12.6 99-17.1c10.3-1.8 17.7 2.4 17.7 9 0 6.5-4.8 10.8-15 11.4m159.4 50.4c-2 10.7-6.5 21-6.5 23.7 0 3.7 1 12.8 8 12.8s9-8 9-14c0-4.6-4-12.2-5.7-23a8.5 8.5 0 01-4.8.5"/><path d="M387.7 261.5c12 2 96.1 16 102.2 16.9 3.5.6 6.3 2.8 6.3 3.8s-3.7 4.5-3.7 10.7c0 4.8.7 12.3 6.3 13.3l1.3.1c1.3 0 2.4-.2 3.4-.7 4.2-1.8 5.8-7 5.8-11.6 0-11-5.7-8.9-4.3-19.2l5.9-40.6c-4.5 2-5.7 9.8-15.5 8-6.7-1.3-83.8-15.6-98.9-18s-25.3 5.5-27.3 15.6 6.5 19.8 18.5 21.7m9-29.8l104.1 18.1-2 12.7s-96.8-8.5-107-9.1c-10.3-.7-14.9-4.2-14.9-10.8s8.2-12.8 19.8-10.8m136 86.4c0 1 0 1.7-.5 3-1.1 2.5-3 5.6-6 6.3l1.7 7.4c3.4-.7 8-3.2 11.3-10.5 1.4-3 1.3-5.2 1.2-6.6 0-1.2 0-1.7 1-3.3.7-1.1.9-1.2 1.7-1.4 2-.5 4.3-1.4 6.2-5 2.2-4.2 1.5-7.6 1-10.1-.3-1.4-.5-2.5-.3-3.6.2-1.7 1.5-3 3.8-5.4 1.2-1.3 2.6-2.8 4-4.6l-6-4.8c-1.1 1.6-2.3 2.8-3.5 4-2.6 2.6-5.2 5.4-5.9 9.6-.4 2.5 0 4.6.4 6.3.5 2.3.7 3.3-.2 5-.5 1-.5 1-1.4 1.1-1.9.5-4.1 1.4-6.3 4.8a11.8 11.8 0 00-2.1 7.8m-13.2 13c3.7-3.2 4.8-4.4 6.5-9.8 1-3.5.8-5.8.6-7.7-.1-1.5-.2-2.5.3-4.5.2-1 .3-1 1.4-1.6 1.6-.8 4.4-2.3 5.6-7 1-4.4-.2-7.2-1-9.2-.8-1.6-1.2-2.5-.9-4.6l-7.5-1.3c-.8 4.4.4 7.1 1.3 9 .8 1.7 1 2.4.6 4-.3 1.6-.6 1.7-1.7 2.3a9.3 9.3 0 00-5.3 6.4c-.8 3.3-.6 5.5-.4 7.3.2 1.5.3 2.6-.3 4.6-1.2 3.5-1.3 3.6-4.3 6.3l-1.8 1.6 5.2 5.7 1.7-1.6"/><path d="M462.7 305.6c.9 3.9 3.6 5.5 5.6 6.8 1.8 1.1 2.4 1.6 2.7 2.8.4 1.9.2 2.4 0 3.2-.6 1.6-1 3.3-.2 6.2 1.5 5 3 6.7 8.1 11.9l5.5-5.5c-4.9-4.8-5.3-5.4-6.2-8.5-.2-.9-.2-1 0-1.7.6-1.6 1-3.6.3-7.2-1-4.5-4.1-6.5-6.2-7.7-1.5-1-2-1.4-2.1-2-.3-1.2 0-2.1.7-4 .7-2.2 1.7-5 1.3-8.9l-7.7 1c.3 2-.2 3.5-.9 5.4a14 14 0 00-1 8.2m-5.1-2c0-1.4-.2-3-.8-4.9a23 23 0 00-5.8-9.5l-2.2-2.5-5.9 5 2.4 2.7c2 2 3 3.1 4.2 6.8.7 2 .5 3 .2 4.5-.4 2-1 4.7.8 8.5 1.8 4.3 4.6 5.3 6.5 6 1.3.5 1.5.5 2 1.5.7 1.6.6 2 .4 2.9-.2 1-.6 2.9.4 5.3 1.4 3.1 5.3 10.5 11.5 11.4l1.2-7.6c-1.6-.2-4-3.3-5.6-6.9l-.1-.2.1-.5c.2-.7.3-1.6.3-2.5 0-1.4-.3-3-1.3-5.2a9.7 9.7 0 00-6.2-5.4c-1.3-.5-1.6-.6-2.2-1.9a5 5 0 01-.5-2c0-.6 0-1.2.2-2 .2-1 .4-2 .4-3.5m50.2 44.8c-7.5 6-24.4 6.6-33.3-1.6l-1.9-1.7-2.3 1.1a31 31 0 01-11.7 1.8c-4.6.1-8.3.3-10.2 3.2-1.4 2.1-1.3 5.1.4 8 .2.5.5 1 .9 1.4h16.7c-6.2 0-9.5-2.9-10.7-4.8l3.2-.1c3.6-.1 8-.3 12.3-1.7a33.4 33.4 0 0015.8 6.3 21.3 21.3 0 0115.2-6.7v5.8c3.2-.9 6.1-2 8.6-3.7 4 1.8 9.8 5.3 13.8 7.7 3.4 2 5.1 3 6.3 3.5a130 130 0 0027 2.6v-7.7a135 135 0 01-24.2-2l-5.1-3c-5.2-3.1-12.3-7.4-17.1-9.1l-2-.7-1.6 1.3"/><path d="M466.3 360.6h-28.6c-13 0-14.3 7.9-14.3 10.7 0 .7 0 1.7.3 2.8h11.7c-3.4 0-4.5-1.4-4.5-2.8s1.3-3 6.8-3h46a14 14 0 012.9-7.7h-20.3m25.1 7.7h1.1l23-5.4-13.1-2.3h-.3v.7s-9.6.4-10.7 7"/><path d="M419.3 374.1c-7.4 0-12.4 5.8-12.4 11.2 0 5.2 4.6 11.5 12.8 11.5h2.4c.5-3 2.9-7.2 11.6-7.7h-14c-2.9 0-5-2.8-5-3.8s1.3-3.5 4.6-3.5h50V374h-50"/><path d="M422 396.7l-.1 1.7c0 6.3 5.5 11.4 15 11.4h.1c1.5-4.3 6.7-7.3 13.7-7.6v-.1h-13.8c-4.8 0-7.4-2.5-7.4-3.8 0-1 3-1.6 5.8-1.6h33.8V389h-35.5c-8.7.5-11 4.7-11.6 7.7"/><path d="M437.1 409.8c-.3.8-.4 1.6-.4 2.4 0 4.8 4.3 10 14 10.9 7 .6 37 1.5 42.6 1.5 4.5 0 23.3-.6 33.5-3.6 3-.8 5.5-2 8-3.2 5.3-2.4 10.7-5 22.6-5v-7.6c-13.6 0-20.1 3-25.8 5.7-2.3 1-4.5 2-7 2.8-8.5 2.4-26 3.2-31.3 3.2-5.1 0-35.2-1-42-1.5-4.9-.4-7-2.3-7-3.2.2-.4 2.6-2.4 8-2.4h31l-7.5-7.7h-25c-7 .4-12.3 3.4-13.7 7.7m49.8-49.6l-.3.4a14 14 0 00-3 7.7v1.3c0 7.1 3.7 19.6 29 22.8l.9-7.7c-8.3-1-22.2-4.4-22.2-15.1v-1.3c1.2-6.6 10.7-7 10.8-7v-7.7c-4 0-11 1.8-15.2 6.6"/></symbol><symbol viewBox="0 0 735 735" id="ghs06" xmlns="http://www.w3.org/2000/svg"><path fill="red" d="M367.5 727.4l360-360-360-360-360 360z"/><path fill="#fff" d="M367.5 670.3L64.7 367.5 367.5 64.7l302.8 302.8z"/><path d="M361.6 364.2c8.2 0 5.5-3.3 12.5-3.3 5.7 0 3.8 3.2 11.5 3.2 7.3 0 9-5.4 9-7.7 0-3.4-3.9-5.6-5.6-10.2-1.8-4.6-5.2-21.7-15.6-21.7-3.9 0-6.1 1.5-9 5-4.7 5.5-5.1 14.8-8 18.4-2.9 3.6-4 7.3-4 9.3 0 2.1 1 7 9.3 7M281 422.7l-7.9 3.7a34.5 34.5 0 00-19.8 28.1c-.4 2.7-6.4 9.8-12.6 9.8-3.8 0-8.3-2.5-9-6.2-1-6.5-6-29.6-6.1-30.6a5.3 5.3 0 10-10.3 2.2l.7 3.7c-9.2-4.4-9.5-5.2-9.5-8.4 0-3.9 9-8.8 16-8.8 6 0 10.6 1.7 15 3.3 4 1.5 8.2 3 12.8 3 6.7 0 8.7-.6 11.8-2.3l2.6-1.2 49.5-23.5c2 2.8 4.3 5.6 7 8.3m-3.4-52c12.3 7.6 12.1 7.3 12.2 12-.1 1.4-.2 3.5-.2 7.5 0 13 25.5 24 41.5 24 17.8 0 41.3-12 41.3-24.4v-6.7c0-5.4.6-5.9 10.9-11.9v25c0 7-9.6 22-27 30.6l-.5.3c-8.4 4.2-18.8 9-23.1 9-4 0-17.4-4-28.1-9.3-17.3-8.7-26.9-23.6-26.9-30.6zm-108-41v.1m311-10c2.3 0 3.3.8 3.8 1.4 3.4 3.5 3.1 13.8 2.9 21.3l-.1 6c-.1 2.9 2.2 5.2 5.1 5.2 3 0 5.3-2.3 5.4-5.3v-2c.4.7.5 1.4.5 1.9v10.1c0 2.9-.8 6.3-4.8 6.3-3.3 0-7.5-2-11.5-4a32.7 32.7 0 00-13.6-4.4h-.7c-2.7-.1-8.2-.4-15.9 3.2h-.1L434 370v-14.7c8.6-3.9 41.3-19 49.4-23a62.5 62.5 0 0020.2-20.8l1.6-2.3A20 20 0 01521 301zm-266.5 39.8a31 31 0 00-15.9-3.3h-.7c-4.5 0-9 2.2-13.6 4.5-4 2-8.2 4-11.5 4-4 0-4.8-3.5-4.8-6.4v-10.1c0-.5.1-1.2.4-2v2.2c.1 2.9 2.6 5.3 5.5 5.2 2.9 0 5.2-2.3 5.1-5.2l-.1-6c-.2-7.5-.6-17.8 2.8-21.3.6-.5 1.6-1.3 4-1.3 7 0 12.8 4.4 15.5 8.2l1.6 2.2c4.1 6 11 16.1 20.2 20.8 7 3.7 32.3 15.2 44.6 20.9v14.4zm117.1-164.8c29.4 0 43.7 12.2 61.7 28.7l9.6 8.5 3.6 3.1c11.5 10 22.3 19.4 22.3 25 0 6.9-2.4 13.7-5.7 20.2.4-2.4.4-4 .4-7 0-11.3-3.1-16.2-14.7-28.3l-7.6 7.3c10.8 11.3 11.8 13.8 11.8 21 0 4.6 0 4.6-2.3 14.9l-3 13.7.3 1.3s3.6 13.1 3.6 25.7c0 13-8 18-18.1 24.2l-3.2 2-11 6.5c-11.4 6.7-17.1 9.7-17.1 21.5v6.7c0 4-14.8 14-30.6 14-14.4 0-30.4-10-31-13.7 0-4.8.3-6.9.3-6.9 0-11.6-5.6-14.8-16.8-21.3-3.1-1.8-7-4-11.5-6.9l-3.2-2c-10.1-6.1-17.4-9.7-17.4-24.1 0-15.3 3.7-20.7 3.7-25.4s-5.1-23-5.1-25.9v-3.4c0-6.9.9-12.6 11.5-22 .8-.8 2.2-3.1 1.1-4.4l-2.7-3.3c-.6-.7-1.7-1-2.8-1-1 0-2 .3-2.6.7-12.5 11.1-15 19.6-15 30l-.1 3.5c0 2.8-.1 1.4 1.3 7.3a50.9 50.9 0 01-8.3-25c0-5.3 10.3-14.7 21.3-24.6l4.8-4.3a328 328 0 0010.2-9.8c7.2-7.1 13-12.7 19.6-16.1a91 91 0 0142.8-10.4m-62.3 210.5c-18.3 8.8-45 21.5-48.5 23l-3.6 1.7c-1.5.8-2 1-6.7 1-2.7 0-5.7-1-9-2.3-4.9-1.8-10.9-4-18.7-4-11 0-26.7 7.6-26.7 19.4 0 10.6 6.8 13.8 18 19l4.8 2.3 2.6 13.5c1.6 9.4 11.1 15 19.4 15 11.8 0 22.1-11.5 23.1-19 1.2-9.4 5.7-15.9 14-19.8l7.7-3.7 44.5-21a72 72 0 0010 6c8.6 4.4 25.1 10.9 32.8 10.9 6.8 0 17-5.1 28.1-10.7 4.8-2.4 8.9-5 12.5-7.9l54.8 26.4c8.2 3.9 12.7 10.4 13.9 19.9 1 7.5 11.3 19 23.1 19 8.3 0 17.8-5.7 19.4-15.1l2.6-13.5-.5.2.5-.2 4.8-2.3c11.2-5.3 18-8.4 18-19 0-11.9-15.8-19.4-26.6-19.4-8 0-13.9 2.2-18.7 4-3.4 1.2-6.3 2.3-9.1 2.3-4.7 0-5.2-.2-6.7-1l-3.5-1.7c-3.7-1.6-34.6-16.3-52.7-25 .3-.7.5-1.5.6-2.2l63-32c5.4-2.4 8.7-2.3 10.9-2.2h1.2c2 0 5.6 1.8 9 3.4 4.8 2.4 10.4 5.1 16 5.1 9.2 0 15.4-7 15.4-16.9v-10.1c0-5.6-3.8-13.2-10.9-17.5-.3-6.6-1.7-12.8-5.8-17-3-3-6.8-4.5-11.5-4.5a30.5 30.5 0 00-24 12.6l-1.8 2.4c-3.3 4.9-9.6 14-16.3 17.4-5 2.5-19.2 9.2-31.5 14.8A32 32 0 00462 310c0-8.8-1.5-17.6-2.7-23l1.9-2.8c7.6-11 18-26 18-43 0-10.3-11-19.8-26-32.8l-3.5-3.1-9.4-8.4c-18.2-16.6-35.3-32.2-68.8-32.2-15.7 0-31.3 4-47.6 12.2a92.9 92.9 0 00-22.2 18c-3.1 3-6.3 6.2-10 9.6l-4.7 4.3c-14.4 13-24.8 22.4-24.8 32.5 0 16.8 10.5 31.9 18 42.9l1.4 2c-1 7.7-2.2 18-2.2 25a29 29 0 0010.5 22.3 903 903 0 01-22.3-10.6c-6.8-3.5-13-12.5-16.4-17.4l-1.7-2.4a30.5 30.5 0 00-24.1-12.6c-4.7 0-8.6 1.5-11.5 4.6-4 4.1-5.4 10.3-5.8 16.9-7 4.3-11 12-11 17.5v10.1c0 10 6.4 17 15.5 17a38 38 0 0016-5.2c3.5-1.6 7-3.3 9-3.3h1.3c2.2-.2 5.5-.3 10.8 2.2l57.7 29.2m120.8 14.4a4925 4925 0 0053.2 25.2l2.6 1.3c3.1 1.6 5 2.3 11.8 2.3 4.6 0 8.8-1.5 12.8-3 4.4-1.7 9-3.4 15-3.4 7 0 16 5 16 8.9 0 3.1-.3 4-9.5 8.3l.8-3.6a5.3 5.3 0 00-10.4-2.2c-.2 1-5 24-6.1 30.5-.7 3.8-5.2 6.3-9 6.3-6.2 0-12.2-7.1-12.6-9.8-2-16.4-11.9-24.3-19.8-28.1L422 402a60 60 0 006.3-8m-13.8-73.2c17.6 0 25-22 25-27.8s-4.5-8-7.1-8h-33.5c-3.6 0-12.2 2.9-12.2 8.4 0 2.1 1.6 6.7 5 11.1 5.7 7.7 10.8 16.3 22.8 16.3m-87.5 0c12 0 17.1-8.6 22.9-16.2 3.3-4.5 4.9-9 4.9-11.1 0-5.6-8.6-8.5-12.2-8.5h-33.5c-2.6 0-7.1 2.4-7.1 8 0 5.8 7.4 27.9 25 27.9m-9.1 21.7h-7.8l7.8 3.6v-3.6m-10.4 36.7c.3 2.2.9 4.5 1.8 7z"/></symbol><symbol viewBox="0 0 579 579" id="ghs07" xmlns="http://www.w3.org/2000/svg"><path fill="#fff" d="M25.3 289.7l264 264 264.1-264c-88-88-176-176.2-264-264l-264.1 264z"/><path fill="red" d="M6 289.7L289.3 573l283.4-283.4L289.4 6.3 6 289.7zm521.8 0L289.3 528 51 289.6 289.4 51.2l238.4 238.4z"/><path d="M289.2 142.8h-2a47.5 47.5 0 00-30.1 12.1 22.9 22.9 0 00-6.4 11.3c-.3 1.1-.3 1.4-.3 3.5s0 2.5.3 3.7c.2 1.4 19.5 131.4 19.7 133.6a21.3 21.3 0 0023.9 18.2 21.3 21.3 0 0018-18.2c.3-2.7 19.5-132.4 19.8-133.7.2-1.2.2-1.6.2-3.5 0-2.3 0-3.1-.5-4.7-.7-2.7-2.2-5.5-4.1-8-1.6-1.9-4-4.1-6.5-5.8a49.6 49.6 0 00-29.1-8.5h-3zm2 201.1H290a30.2 30.2 0 00-24.3 14.1 33.8 33.8 0 00-5.5 23.2 34.3 34.3 0 0011.4 21.8 31 31 0 0019.9 7.4 31.6 31.6 0 0025.8-14.1 34.1 34.1 0 005.4-23.4c-.6-4.1-1.6-7.5-3.2-11a31.7 31.7 0 00-28.1-18z"/></symbol><symbol viewBox="0 0 919 919" id="ghs08" xmlns="http://www.w3.org/2000/svg"><path fill="red" d="M459.5 909.3l449.8-449.8L459.5 9.7 9.7 459.5z"/><path fill="#fff" d="M459.5 838L81 459.5 459.5 80.9 838 459.5z"/><path d="M461.6 170.1c-53 0-96 46.3-96 103.4 0 37.1 13.9 89.2 41 121.1l-3.4 33.9-72.6 26.3a12.4 12.4 0 0015.3 9.5 12.4 12.4 0 0013.8 9.2 12.4 12.4 0 0016.8 8.2 7.9 7.9 0 0010.1 6.8A12.4 12.4 0 00410 492a12.4 12.4 0 0012.6 1.5c1.6 3.4 4.6 6 8.3 7.2-.2.4-.3 1-.3 1.4a4.6 4.6 0 108.9-1.6 13.7 13.7 0 007-20.3 4.5 4.5 0 00.9-8.8 12.4 12.4 0 003-9.9 12.4 12.4 0 004.5-20.1l1.2.1a4.6 4.6 0 10-2.7-8.2c-.9-1.7-2.5-3-4.5-3.3a16.5 16.5 0 001.4-14.4 12.4 12.4 0 005-19.8 8.7 8.7 0 001.8-15.6 8.6 8.6 0 001.8-7c1.8 0 3.4-.6 4.8-1.6l-.2 1.6c0 3 1.6 5.8 4 7.3a12.3 12.3 0 006.6 15.6 16.5 16.5 0 005.7 17.4 9.5 9.5 0 000 17.5 7.9 7.9 0 003.5 11 16.5 16.5 0 00.5 13.5l-1.4 2a4.6 4.6 0 00-7.9 3.1c0 2.6 2 4.6 4.6 4.6h.6v1.2c0 3.2.9 6.1 2.4 8.6a18 18 0 002.6 20.6 8.5 8.5 0 1015.5 6c2.3-.3 4.5-1 6.4-2a6.3 6.3 0 108.2-8.5c.6-1.4 1-2.9 1.3-4.4 1.4.4 2.8.6 4.3.6h.6a7.7 7.7 0 0013.3 1.8 6.8 6.8 0 0012.2 1.9 8.7 8.7 0 0012-11.8c.7.3 1.4.4 2 .4a6.8 6.8 0 006.8-7.8 8.7 8.7 0 0016.4-3.8 8.7 8.7 0 004-6.6l1.5.3a4.6 4.6 0 004.3-6.1l-7-2.2L514 430l-.3-31c11-11.8 19.6-27 25.9-43.6 11.7-31.4 18-64.6 18-82 0-45-43-103.4-96-103.4zM313 462c-1.3 0-2.4.4-3.4 1-17.3 6.6-31.6 12-37 14.3a34.6 34.6 0 00-21.2 30.7v41.6l67.3 68.3 2.1.2c3.7 0 7-2 8.7-5a12.4 12.4 0 0016.7-13 10.1 10.1 0 0017-10.6c2-.8 3.8-2.1 5-3.8a7 7 0 0012.1-4.9 7 7 0 00-2.2-5.2 10 10 0 005.3-6.3 10 10 0 006.4 3.2 7 7 0 005.5 11.5 7 7 0 007-7 7 7 0 00-5-6.7 10 10 0 003.3-10.5h1a10 10 0 004-.8 5 5 0 105.2-5.2 10 10 0 00.5-6.5 4.6 4.6 0 100-9.1h-.4c-.2-3.8-2.2-7.1-5.1-9.2v-1a12.4 12.4 0 00-19-10.5c.3-.7.5-1.5.5-2.3a6.5 6.5 0 00-8.4-6.2l.2-1.8a12.4 12.4 0 00-18.3-11c-1.6-2.6-4-4.5-7-5.4a6.5 6.5 0 00-8.3-8.8 12.4 12.4 0 00-15.6-11.9 6.5 6.5 0 00-10.2-2.4 6.5 6.5 0 00-6.5-5.6m304.3 1.4c-3 .3-5.5 2.5-6.1 5.5-1-.5-2-.8-3.1-.8a6.8 6.8 0 00-6.7 7.9 12.4 12.4 0 00-19.9 10 16.4 16.4 0 00-20.1 18.4 7.8 7.8 0 00-9.5 2.6 15 15 0 00-19.7 13.6l-1.6-.2a7.9 7.9 0 00-7 11.6 8.7 8.7 0 00-10.2 13.9c-2 .3-3.6 1.6-4.3 3.4-.2.6-.4 1.2-.4 2 0 1.5.9 3 2.1 3.7a5 5 0 007.9-2.2 8.3 8.3 0 005.9.8l-.1 1.6c0 2 .4 3.9 1 5.6a6.3 6.3 0 00-4.3 8.8 6.2 6.2 0 0011 1c.3-.5.7-1.1.9-1.8a15 15 0 008.5 1.3 10 10 0 00.5 8h-1a5 5 0 000 10 5 5 0 005-4.2 12.4 12.4 0 0019 7.2 10 10 0 0016.8 6.2v.9a12.4 12.4 0 0018.8 10.6 7.8 7.8 0 1012.5 9.1l67.3-62v-45.3c0-13.8-14.8-31-32.7-37.1l-30.6-10m-153.4 6a6.3 6.3 0 00-3 11.9 4.6 4.6 0 001.3 9 4.6 4.6 0 002.7-8.3 6.3 6.3 0 00-1-12.6m-22.7 5.8v.3l-.3-.2h.3m13.8 21.6a4.6 4.6 0 100 9 4.6 4.6 0 000-9m-42.1 4.8a6.5 6.5 0 100 13 6.5 6.5 0 000-13m73.9 11.6a5.1 5.1 0 000 10.2c.4 0 .8 0 1.1-.2a6.8 6.8 0 008.3 6.3 6.3 6.3 0 004.7-9.4 6.8 6.8 0 00-9.3-3.2 5.1 5.1 0 00-4.8-3.7M416 525.2a4.6 4.6 0 102.6 8.3c.2 3.4 3 6 6.3 6a6.3 6.3 0 10-4.5-10.8c-.4-2-2.2-3.6-4.4-3.6m89 32.6a6.8 6.8 0 00-6.3 9.2 5 5 0 00-4 7c.7 1.8 2.5 3 4.5 3h.2a5 5 0 005-5v-.7h.6a6.8 6.8 0 100-13.6m-53.3 8.6a6.4 6.4 0 100 12.7 6.4 6.4 0 000-12.7m-37 1a5 5 0 100 10.1 5 5 0 000-10.1m7.5 13.7a7 7 0 00-7.1 7 7 7 0 006 7l-.1.8a12.4 12.4 0 00-18.6 3.1 10 10 0 00-17.2 4.3 10.1 10.1 0 00-15.5 10.6 15 15 0 00-24 5.2 10 10 0 00-15.4 10.7l122.2 124.1a4.4 4.4 0 00.2-8 4.4 4.4 0 00.3-8.3 5.7 5.7 0 00-2-10.4 19.5 19.5 0 005-27.2 12.4 12.4 0 00-1.4-21.9 7 7 0 00-.2-11.4 7 7 0 00-7.2-11.3 12.4 12.4 0 00.2-10.4 7 7 0 001.9-13.6 12.4 12.4 0 00-1.2-19.8 12.4 12.4 0 00.7-15.5 5 5 0 10-5.9-7.7 12.4 12.4 0 00-14.7-3.5 7 7 0 00-6.2-3.7zm69 2a8.5 8.5 0 00-7.4 12.5 7 7 0 00-11.6 5.4 7 7 0 005.5 6.9 12.4 12.4 0 003.5 15.6 15 15 0 002.3 17.5 15 15 0 00-1.1 8.5c-1-.7-2.2-1.1-3.6-1.2a7 7 0 00-5.7-11.2 7 7 0 00-7 7 7 7 0 001.8 4.8 7 7 0 002 13.8h.7a15 15 0 004.7 20 15 15 0 00-4 25.2 12.4 12.4 0 00-4.5 15.1 10 10 0 00.5 11 4.4 4.4 0 00.2 7.2 4.4 4.4 0 00-1.9 4.5 4.4 4.4 0 001 7.5l131.8-121.5a7 7 0 00-10-8.5 10 10 0 00-15-5.7v-.8a12.4 12.4 0 00-17-11.6 7 7 0 10-14 1.3 10 10 0 00-10.2-4.7 12.4 12.4 0 00-14.4-12 7 7 0 00-13.7-1.8 14.5 14.5 0 00-5 .5 8.5 8.5 0 00-8-5.5zm-28.1 27.8a5 5 0 00-3.4 8.9 7 7 0 004.9 12 7 7 0 007-7 7 7 0 00-4-6.3 5 5 0 00-4.4-7.6"/></symbol><symbol viewBox="0 0 735 735" id="ghs09" xmlns="http://www.w3.org/2000/svg"><path fill="red" d="M367.5 727.4l360-360-360-360-360 360z"/><path fill="#fff" d="M367.5 670.3L64.7 367.5 367.5 64.7l302.8 302.8z"/><g stroke="#000" stroke-width="5"><path d="M223.7 367.2h281.2"/><path stroke-width="4" d="M462.7 418l33 23.8-31.4 15 42.2 3.9-11.3 15h23.3l.5 16.8-294.2-1.6s49.2-14.5 57.3-8.6c10.8-4.9 89.8-38.4 89.8-36.2m-75.7-26l1.6-85.4-42.7-23.2s-6.5-4.3-15.7-1.6l-7.6 2.2s23.3-19.5 27.6-17.9c4.3 1.6 34.6 16.2 34.6 16.2s-3.2-22.7-11.3-29.2L243.2 250v-6l42.7 26s1.6-24.9-7-39.5c-8.6-14.6-15-27.6-15-27.6l2.6-2.1 21.1 32.4 7-22.2 4.3-1s-5.4 31.3-1.6 41c3.8 9.8 17.9 62.8 17.9 62.8l21-30.3s.6-12.5-.5-21.1c-1-8.7-2.7-48.7-2.7-48.7h3.8l6 43.8 34-39.5v4.4s-33.5 42.2-31.8 51.4c1.6 9.1 3.2 14.6-2.7 27.5s-9.8 22.2-9.8 22.2 17.9-21 26-22.7c8.1-.5 19 .6 26.5-6s26-27 26-27l-28.7 44.4s-13.5.5-19 6.5L335.8 350v58.4l36.7 18.4-44.8 6.5-10.8 15.7-14.6-12.5-40.7 3.8z"/><path fill="#fff" d="M355.2 445.1c10.3-4.3 27-11.4 36.8-25.4 10-14.6 46-75.7 95.2-70.8a225 225 0 01-11.4 20.5l35.1-10.8s.5 46.5-66 76.2c-30.8 10.8-37.3 11.4-40 15.1-2.7 3.8-15 22.7-15 22.7l-55.2-24.3s14-.5 20.5-3.2z"/></g><ellipse cx="484.3" cy="385.8" rx="6" ry="5.1"/></symbol></svg>