<?xml version="1.0" encoding="utf-8"?><svg xmlns="http://www.w3.org/2000/svg" xmlns:xlink="http://www.w3.org/1999/xlink"><symbol viewBox="0 0 25 23" id="basket-checked" xmlns="http://www.w3.org/2000/svg"><path d="M23.57 5.42l-.11.85L23.17 8 23 9.1l-.26 1.68-.2 1.09-.1.43a1.88 1.88 0 01-.62.85 2.63 2.63 0 01-1.22.37H7.23L5.3 2.73a2.75 2.75 0 00-.83-1.55A3.31 3.31 0 002.6.7H1.14a.44.44 0 00-.32.15.45.45 0 00-.12.33.5.5 0 00.12.37.46.46 0 00.34.16h1.43A1.68 1.68 0 013.74 2a1.47 1.47 0 01.55.9L6.57 16a2.59 2.59 0 00.89 1.39 3.63 3.63 0 001.89.61h13l.13-1.05H9.19a1.89 1.89 0 01-1.08-.34 1.64 1.64 0 01-.52-.8l-.2-1.08h13.24a3.74 3.74 0 001.95-.58 2.7 2.7 0 00.94-1.58l1.07-7.1zM9 18.77a2.09 2.09 0 102.09 2.09A2.1 2.1 0 009 18.77zm0 3.09a1 1 0 111-1 1 1 0 01-1 1zM20.21 18.77a2.09 2.09 0 102.09 2.09 2.1 2.1 0 00-2.1-2.09zm.9 2.45a1 1 0 01-.92.62 1 1 0 01-1-1 1 1 0 01.6-.94 1 1 0 011.31 1.29z"/><path fill="#59c346" d="M10.69 5.12L9 6.71l3 3.01 1.79 1.78 1.87-1.78 6.11-6.2-1.6-1.59-6.38 6.28-3.1-3.09z"/></symbol><symbol viewBox="0 0 25 23" id="basket-empty" xmlns="http://www.w3.org/2000/svg"><path d="M7.4 5.3l.1.9h15.9L23.2 8H7.9l.2 1.1H23l-.3 1.7H8.4l.2 1.1h13.9l-.1.4c-.1.3-.3.6-.6.9-.4.2-.8.3-1.2.4H7.2L5.3 2.7c-.1-.6-.4-1.1-.8-1.5C3.9.8 3.3.7 2.6.7H1.1C1 .7.9.8.8.9c-.1 0-.1.2-.1.3s0 .3.1.4c.1 0 .2.1.4.1h1.4c.4 0 .8.1 1.1.3s.5.5.6.9L6.6 16c.1.5.4 1 .9 1.4.6.4 1.2.6 1.9.6h13l.1-1H9.2c-.4 0-.8-.1-1.1-.3-.3-.2-.4-.5-.5-.8l-.2-1.1h13.2c.7 0 1.4-.2 2-.6.5-.4.8-1 .9-1.6l1.1-7.1-17.2-.2zM9 18.8c-1.2 0-2.1.9-2.1 2.1C6.9 22 7.8 23 9 23s2.1-.9 2.1-2.1c0-1.2-.9-2.1-2.1-2.1zm0 3.1c-.6 0-1-.4-1-1s.4-1 1-1 1 .4 1 1-.4 1-1 1zM20.2 18.8c-1.2 0-2.1.9-2.1 2.1 0 1.2.9 2.1 2.1 2.1 1.2 0 2.1-.9 2.1-2.1 0-1.2-.9-2.1-2.1-2.1zm.9 2.4c-.2.4-.5.6-.9.6-.6 0-1-.4-1-1 0-.4.2-.8.6-.9.5-.2 1.1 0 1.3.5.1.3.1.6 0 .8z"/></symbol><symbol viewBox="0 0 509.03 455.1" id="basket-filled" xmlns="http://www.w3.org/2000/svg"><g data-name="Ebene 2"><g data-name="Ebene 4"><path d="M409.4 370.1a42.5 42.5 0 1042.5 42.5 42.5 42.5 0 00-42.5-42.5zm0 57a14.5 14.5 0 1114.5-14.5 14.51 14.51 0 01-14.5 14.5zM182.73 370.1a42.5 42.5 0 1042.5 42.5 42.5 42.5 0 00-42.5-42.5zm0 57a14.5 14.5 0 1114.5-14.5 14.52 14.52 0 01-14.5 14.5zM481 88.53L450.43 237.9a29.91 29.91 0 01-29.12 22.77h-270.7L112.29 47.73A57.94 57.94 0 0055.21 0H14a14 14 0 000 28h41.21a30 30 0 0129.53 24.69l45.63 253.58A58 58 0 00187.46 354h265.87s5.85-26.84 7-28H187.46a30 30 0 01-29.53-24.69l-2.28-12.64h265.66a57.82 57.82 0 0056.4-44.46L509 88.53z"/></g></g></symbol><symbol viewBox="0 0 32.06 65.69" id="bolt" xmlns="http://www.w3.org/2000/svg"><path fill-rule="evenodd" d="M32.06 20l-16.3 27.8 1.31.58a3 3 0 011.53 4l-3.24 7.31 1.37.61a1.5 1.5 0 01-1.21 2.7l-3.2-1.41-1.42 3.2a1.5 1.5 0 01-2.75-1.22l1.42-3.2-2.74-1.22-1.42 3.2a1.5 1.5 0 11-2.79-1.09.61.61 0 010-.12l1.42-3.2-3.15-1.42A1.5 1.5 0 012 53.73l.1.05 1.37.61 3.25-7.32a3 3 0 014-1.53l1.29.56L21.06 27l-16 4 13-31 10 1-14 23z"/></symbol><symbol viewBox="0 0 17 18" id="calendar" xmlns="http://www.w3.org/2000/svg"><path d="M5.38 10.47H3.93a.44.44 0 01-.44-.47V8.58a.44.44 0 01.44-.43h1.45a.44.44 0 01.44.43V10a.44.44 0 01-.44.47zM9.31 10V8.58a.44.44 0 00-.44-.43H7.42a.44.44 0 00-.42.43V10a.44.44 0 00.44.43h1.43a.44.44 0 00.44-.43zm3.49 0V8.58a.44.44 0 00-.44-.43h-1.45a.44.44 0 00-.44.43V10a.44.44 0 00.44.43h1.45a.44.44 0 00.44-.43zm-3.49 3.53v-1.46a.44.44 0 00-.44-.43H7.42a.44.44 0 00-.44.43v1.46a.44.44 0 00.44.44h1.45a.44.44 0 00.44-.44zm-3.49 0v-1.46a.44.44 0 00-.44-.43H3.93a.44.44 0 00-.44.43v1.46a.44.44 0 00.44.44h1.45a.44.44 0 00.44-.44zm7 0v-1.46a.44.44 0 00-.44-.43h-1.47a.44.44 0 00-.44.43v1.46a.44.44 0 00.44.44h1.45a.44.44 0 00.44-.44zm3.49-9.46v12.18A1.75 1.75 0 0114.54 18H1.74A1.74 1.74 0 010 16.25V4.07a1.74 1.74 0 011.74-1.74h1.75V.44A.44.44 0 013.93 0h1.45a.44.44 0 01.44.44v1.89h4.65V.44a.44.44 0 01.44-.44h1.45a.44.44 0 01.44.44v1.89h1.74a1.75 1.75 0 011.75 1.74zM14.54 16V5.82H1.74V16a.21.21 0 00.22.21h12.36a.21.21 0 00.22-.21z"/></symbol><symbol viewBox="0 0 163.35 130.76" id="camera" xmlns="http://www.w3.org/2000/svg"><path d="M152.07 16.83h-16.16v-6H120v6h-13.16L97.86 0H62.78l-9 16.83h-8.72v-6h-16v6H11.28C5.06 16.83 0 22.79 0 29v90.47a11.29 11.29 0 0011.28 11.28h140.79a11.29 11.29 0 0011.28-11.28V28.11a11.29 11.29 0 00-11.28-11.28zM39.09 77.7A40.33 40.33 0 1179.42 118a40.37 40.37 0 01-40.33-40.3zm4.13 30.77H8.12V46H44a47.41 47.41 0 00-.78 62.45zM127 77.7A47.38 47.38 0 00114.84 46h40.39v62.45h-39.61A47.35 47.35 0 00127 77.7zM11.28 25h47.4l9-16.83H93L102 25h50.1a3.17 3.17 0 013.16 3.16V38.8h-48.55a47.39 47.39 0 00-54.59 0h-44V29c0-1.73 1.42-4 3.16-4zm-3.16 94.48v-3.79h42.75a47.43 47.43 0 0013.05 7H11.28a3.17 3.17 0 01-3.16-3.21zm144 3.16h-57.2a47.43 47.43 0 0013-7h47.26v3.79a3.17 3.17 0 01-3.11 3.21z"/><path d="M114.7 77.7A35.29 35.29 0 1079.42 113a35.33 35.33 0 0035.28-35.3zm-62.44 0a27.16 27.16 0 1127.16 27.16A27.19 27.19 0 0152.26 77.7z"/><path d="M79.42 55.05A22.67 22.67 0 0056.77 77.7h8.13a14.53 14.53 0 0114.52-14.52zM72.35 13.24h15.94v8.12H72.35zM129.14 28.83h19.4v7.22h-19.4z"/></symbol><symbol viewBox="0 0 47 39" id="camera-colored" xmlns="http://www.w3.org/2000/svg"><path d="M3.91 7A3.93 3.93 0 000 11v24a3.93 3.93 0 003.91 4h39.18A3.93 3.93 0 0047 35V11a3.93 3.93 0 00-3.91-4H3.91z" fill="#2176a4"/><path d="M3.91 1A3.93 3.93 0 000 5v24a3.93 3.93 0 003.91 4h39.18A3.93 3.93 0 0047 29V5a3.93 3.93 0 00-3.91-4H3.91z" fill="#2b8cc0"/><path d="M3.91 5A3.93 3.93 0 000 9v24a3.93 3.93 0 003.91 4h39.18A3.93 3.93 0 0047 33V9a3.93 3.93 0 00-3.91-4H3.91z" fill="#3cb7e7"/><circle cx="24" cy="23" r="12" fill="#2176a4"/><circle cx="24" cy="21" r="12" fill="#ecf0f1"/><circle cx="24" cy="21" r="8" fill="#34495e"/><circle cx="24" cy="21" r="6" fill="#2c3e50"/><circle cx="24" cy="21" r="4" fill="#34495e"/><circle cx="24" cy="21" r="2" fill="#3498db"/><circle cx="22" cy="17" r="2" fill="#ecf0f1"/><path fill="#ecf0f1" d="M38 12h6v2h-6z"/><path fill="#2b8cc0" d="M38 10h6v2h-6zM8 0a4 4 0 00-4 4h14a4 4 0 00-4-4z"/></symbol><symbol viewBox="0 0 22.75 17.218" id="check" xmlns="http://www.w3.org/2000/svg"><path d="M22.7 3.55L9.04 17.206l-9.09-9.1 3.56-3.563 5.53 5.532L19.14-.02z"/></symbol><symbol viewBox="0 0 8.56 15.68" id="chevron" xmlns="http://www.w3.org/2000/svg"><path data-name="Form 293 Kopie 9" d="M.69 15.69L0 15l7.13-7.16L0 .69.69 0l7.86 7.84z"/></symbol><symbol viewBox="0 0 8.56 15.68" id="chevron-left" xmlns="http://www.w3.org/2000/svg"><path data-name="Form 293 Kopie 9" d="M0 7.84L7.85 0l.7.7-7.14 7.14L8.55 15l-.7.7z"/></symbol><symbol viewBox="0 0 8.56 15.68" id="chevron-small" xmlns="http://www.w3.org/2000/svg"><path data-name="Form 293 Kopie 9" class="akcls-1" d="M.69 15.69l-.7-.7 7.14-7.15L-.01.69l.7-.7 7.86 7.85z"/></symbol><symbol viewBox="0 0 27 27" id="circle-check" xmlns="http://www.w3.org/2000/svg"><path d="M13.5 1A12.5 12.5 0 1026 13.5 12.5 12.5 0 0013.5 1zm0 24A11.54 11.54 0 1125 13.5 11.55 11.55 0 0113.5 25z"/><path d="M11.86 16.87l-3.62-3.96-.74.78 4.4 4.81 7.6-9.27-.78-.73-6.86 8.37z"/></symbol><symbol fill="none" viewBox="0 0 24 18" id="credit-card" xmlns="http://www.w3.org/2000/svg"><path d="M4 6a1 1 0 011-1h4a1 1 0 010 2H5a1 1 0 01-1-1z" fill="#000"/><path fill-rule="evenodd" clip-rule="evenodd" d="M4 0a4 4 0 00-4 4v10a4 4 0 004 4h16a4 4 0 004-4V4a4 4 0 00-4-4H4zm16 2H4a2 2 0 00-2 2v7h20V4a2 2 0 00-2-2zm2 11H2v1a2 2 0 002 2h16a2 2 0 002-2v-1z" fill="#000"/></symbol><symbol viewBox="0 0 20 62" id="dragdrop" xmlns="http://www.w3.org/2000/svg"><path data-name="Arrow" d="M10.9 58.16l7.58-7.58 1.32 1.32-9.9 9.9L0 51.9l1.32-1.32 7.58 7.58V44.9h2z"/><path data-name="Menu" d="M1 24h18v2H1zm0 6h18v2H1zm0 6h18v2H1z"/><path data-name="Arrow" d="M9 3.74l-7.58 7.58L.1 10 10 .1l9.9 9.9-1.32 1.32L11 3.74V17H9z"/></symbol><symbol viewBox="0 0 28 28" id="facebook" xmlns="http://www.w3.org/2000/svg"><defs><style>.aocls-1{fill:#3e5294;fill-rule:evenodd}</style></defs><path fill="#3e5294" fill-rule="evenodd" id="aofacebook" class="aocls-1" d="M58.455 1h-24.91A1.545 1.545 0 0032 2.545v24.91A1.545 1.545 0 0033.545 29h13.41V18.157h-3.648v-4.226h3.649v-3.116c0-3.616 2.209-5.586 5.435-5.586a29.945 29.945 0 013.261.166v3.78h-2.238c-1.755 0-2.094.834-2.094 2.057v2.7h4.18l-.545 4.226H51.32V29h7.135A1.546 1.546 0 0060 27.455V2.545A1.545 1.545 0 0058.455 1z" transform="translate(-32 -1)"/></symbol><symbol viewBox="0 0 28 28" id="instagram" xmlns="http://www.w3.org/2000/svg"><defs><style>.apcls-1{fill-rule:evenodd}</style></defs><path id="apinstagram" fill-rule="evenodd" class="apcls-1" d="M154 3.523c3.738 0 4.181.014 5.657.082a7.753 7.753 0 012.6.482 4.343 4.343 0 011.61 1.047 4.349 4.349 0 011.047 1.61 7.732 7.732 0 01.482 2.6c.067 1.476.081 1.919.081 5.657s-.014 4.181-.081 5.657a7.732 7.732 0 01-.482 2.6 4.635 4.635 0 01-2.657 2.657 7.754 7.754 0 01-2.6.482c-1.476.067-1.919.082-5.657.082s-4.181-.014-5.657-.082a7.754 7.754 0 01-2.6-.482 4.635 4.635 0 01-2.657-2.657 7.732 7.732 0 01-.482-2.6c-.067-1.476-.081-1.919-.081-5.657s.014-4.181.081-5.657a7.732 7.732 0 01.482-2.6 4.348 4.348 0 011.047-1.61 4.343 4.343 0 011.61-1.047 7.753 7.753 0 012.6-.482c1.476-.067 1.919-.082 5.657-.082M154 1c-3.8 0-4.279.016-5.772.084a10.283 10.283 0 00-3.4.651 6.863 6.863 0 00-2.478 1.615 6.857 6.857 0 00-1.615 2.48 10.278 10.278 0 00-.651 3.4C140.016 10.721 140 11.2 140 15s.016 4.279.084 5.772a10.277 10.277 0 00.651 3.4 7.162 7.162 0 004.094 4.095 10.283 10.283 0 003.4.651c1.492.066 1.971.082 5.771.082s4.279-.016 5.772-.084a10.283 10.283 0 003.4-.651 7.162 7.162 0 004.094-4.094 10.277 10.277 0 00.651-3.4c.067-1.492.083-1.971.083-5.771s-.016-4.279-.084-5.772a10.278 10.278 0 00-.651-3.4 6.857 6.857 0 00-1.615-2.48 6.863 6.863 0 00-2.479-1.615 10.283 10.283 0 00-3.4-.651C158.279 1.016 157.8 1 154 1zm0 6.811A7.189 7.189 0 10161.189 15 7.189 7.189 0 00154 7.811zm0 11.856A4.667 4.667 0 11158.667 15 4.667 4.667 0 01154 19.667zm9.153-12.14a1.68 1.68 0 11-1.68-1.68 1.68 1.68 0 011.68 1.68z" transform="translate(-140 -1)"/></symbol><symbol viewBox="0 0 980.1 980" id="link" xmlns="http://www.w3.org/2000/svg"><path d="M498.2 583.6a37.61 37.61 0 00-16.7 50.6 75 75 0 017.1 45.6 74.11 74.11 0 01-20.9 40.7l-1.8 1.9-160.7 160.7h-.2l-1.5 1.5a75.06 75.06 0 01-103.5-1.4l.1-.1h-.1L97.1 780H97l-1.5-1.5A74.54 74.54 0 0196.9 675h.1l1.8-2.1 160.8-160.8a74 74 0 0140.6-20.8 76.28 76.28 0 0145.7 7.1 37.59 37.59 0 1033.9-67.1 150.81 150.81 0 00-91.4-13.9 148.46 148.46 0 00-82.2 41.6h.1l-.1.2L45.6 619.9l-1.9 1.6-.1.2h.1l-.1.2a149.86 149.86 0 00-2 209.3l2 2.2h.1l102.9 102.8.1.1h.2a149.49 149.49 0 00209.3 1.9l2.1-1.9.1-.1 160.7-160.7 2-1.9a148 148 0 0041.7-82.2 151.56 151.56 0 00-14.1-91.3 37.74 37.74 0 00-50.5-16.5zM938.4 148.9l-1.9-2.1-.2-.1L833.5 43.8l-.1-.1h-.2a149.61 149.61 0 00-209.4-1.9l-2.1 1.9-.2.1h.1L460.9 204.6l-1.9 1.6a151 151 0 00-27.6 173.7 37.63 37.63 0 0067.1-34.1 74.91 74.91 0 01-7.1-45.5 74 74 0 0120.8-40.7l1.9-1.9L674.8 97.1l.1-.2.1.2.1-.1 1.4-1.5a75.05 75.05 0 01103.6 1.3l-.1.2v.3l103 102.8h.2l1.5 1.5a74.93 74.93 0 01-1.5 103.5h-.2l-1.8 1.9-160.5 160.9-.1-.2a75.28 75.28 0 01-40.7 21 76.28 76.28 0 01-45.7-7.1c-18.4-9.5-41.1-1.9-50.5 16.5a37.68 37.68 0 0016.5 50.5 151.33 151.33 0 0091.3 14.1 147.48 147.48 0 0082.2-41.8L934.4 360l1.9-1.6.2-.2a149.74 149.74 0 001.9-209.3z"/><path d="M302.8 677.1a37.84 37.84 0 0053.4 0l321-321.1a37.69 37.69 0 10-53.4-53.2l-321 320.9a37.84 37.84 0 000 53.4z"/></symbol><symbol viewBox="0 0 16 16" id="list-view" xmlns="http://www.w3.org/2000/svg"><path d="M0 0h4v4H0V0zm0 6h4v4H0V6zm0 6h4v4H0v-4zM6 0h10v4H6V0zm0 6h10v4H6V6zm0 6h10v4H6v-4z" class="arcls-1"/></symbol><symbol viewBox="0 0 422.6 421.1" id="magnifier" xmlns="http://www.w3.org/2000/svg"><g data-name="Ebene 2"><path d="M418.5 397.2L290.12 268.83a164.07 164.07 0 10-19.67 19.92L398.7 417a14 14 0 1019.8-19.8zm-350.67-137A136 136 0 01260.17 67.83 136 136 0 0167.83 260.17z" data-name="Ebene 6"/></g></symbol><symbol viewBox="0 0 63 37" id="mask" xmlns="http://www.w3.org/2000/svg"><path d="M62 12a18.7 18.7 0 01-3.7 10.36A20.89 20.89 0 0152 28c1.28-4.69 2.14-17.71 1.8-21.29l2.65-2.13.09-.06A3.58 3.58 0 0158.32 4a2.55 2.55 0 011.12.25 4 4 0 012 2.53A16.74 16.74 0 0162 12M4.83 22.51A18.51 18.51 0 011 12.11a16.35 16.35 0 01.6-5.31 4.09 4.09 0 012.05-2.55A2.69 2.69 0 014.81 4a3.9 3.9 0 011.84.52l.09.06 3.18 2.5a5.69 5.69 0 00-.21.86C8.93 12.5 9.51 23.44 11 28a21.52 21.52 0 01-6.17-5.49M62.35 6.66a5 5 0 00-2.51-3.1 3.49 3.49 0 00-1.46-.32 4.48 4.48 0 00-2.27.67l-2.74 2.15C51.11 4.73 34.49 0 31.06 0c-2.95 0-15.22 3.93-19.83 5.44a2.13 2.13 0 00-1.15 1L6.92 3.92a4.48 4.48 0 00-2.27-.67 3.49 3.49 0 00-1.46.32A5 5 0 00.65 6.66 17.85 17.85 0 000 12.35a19.62 19.62 0 004 11 22.47 22.47 0 007.38 6.27l.1.15C12.8 31.62 26.06 37 31.36 37c5.61 0 18.89-6.14 19.8-7a1.21 1.21 0 00.22-.29A22.44 22.44 0 0059 23.35a19.62 19.62 0 004-11 17.85 17.85 0 00-.63-5.69" fill="#171717" fill-rule="evenodd"/><path fill="#ffe42d" fill-rule="evenodd" d="M17 12.61L31.06 11l14.07 1.61-14.07.58L17 12.61zM14 18.56L31 18l17 .56-17 1.73-17-1.73zM17 25.51L31 25l14.13.51-14.07 1.59L17 25.51z"/></symbol><symbol viewBox="0 0 24.68 24.68" id="minus" xmlns="http://www.w3.org/2000/svg"><path d="M0 11.86v.94h24.68v-.94H0z"/></symbol><symbol viewBox="0 0 11 16" id="play" xmlns="http://www.w3.org/2000/svg"><path fill="#fff" d="M11 8L0 0v16l11-8z"/></symbol><symbol viewBox="0 0 24.68 24.68" id="plus" xmlns="http://www.w3.org/2000/svg"><path d="M12.8 0h-.94v11.86H0v.94h11.86v11.88h.94V12.8h11.88v-.94H12.8V0z"/></symbol><symbol viewBox="0 0 59.05 59.05" id="pw-hide" xmlns="http://www.w3.org/2000/svg"><path d="M11.28 41.39a1 1 0 101.25-1.56 28.15 28.15 0 01-2.3-2.06l-7.4-7.4 7.63-7.63A27 27 0 0138.3 16.2a1 1 0 10.63-1.89A29 29 0 009 21.32l-9 9.05 8.81 8.81a30.23 30.23 0 002.47 2.21zM50.24 21.33a29.2 29.2 0 00-4.4-3.62 1 1 0 00-1.39.27 1 1 0 00.28 1.39 26.84 26.84 0 014.09 3.37l7.4 7.4-7.63 7.63a27.25 27.25 0 01-28.35 6.35 1 1 0 00-1.28.61 1 1 0 00.6 1.28 29 29 0 009.78 1.69A29.25 29.25 0 0050 39.18l9-9z"/><path d="M30.54 41.77A11.41 11.41 0 0124.47 40a1 1 0 00-1.38.32 1 1 0 00.32 1.38 13.5 13.5 0 0018.35-19 1 1 0 00-1.66 1.11 11.5 11.5 0 01-9.56 17.89zM30.54 18.77a11.53 11.53 0 015.85 1.6 1 1 0 001.37-.37 1 1 0 00-.35-1.37 13.51 13.51 0 00-19 17.57 1 1 0 00.9.56 1 1 0 00.44-.11 1 1 0 00.46-1.34A11.32 11.32 0 0119 30.27a11.51 11.51 0 0111.54-11.5zM54.62 5.57a1 1 0 00-1.41 0l-46.5 46.5a1 1 0 000 1.41 1 1 0 001.41 0L54.62 7a1 1 0 000-1.43z"/></symbol><symbol viewBox="0 0 59.2 59.2" id="pw-show" xmlns="http://www.w3.org/2000/svg"><path d="M51.06 21.56a30.52 30.52 0 00-43.12 0L0 29.5l8.14 8.14a30.52 30.52 0 0043.12 0l7.94-7.94zm-1.21 14.66a28.53 28.53 0 01-40.3 0L2.83 29.5 9.36 23a28.54 28.54 0 0140.29 0l6.72 6.73z"/><path d="M28.57 21.57a7 7 0 00-7 7 1 1 0 002 0 5 5 0 015-5 1 1 0 000-2z"/><path d="M29.57 16.57a13 13 0 1013 13 13 13 0 00-13-13zm0 24a11 11 0 1111-11 11 11 0 01-11 11z"/></symbol><symbol viewBox="0 0 265.988 259" id="rating-star" xmlns="http://www.w3.org/2000/svg"><g data-name="Ebene 2"><g data-name="Ebene 1"><path data-name="7 Kopie 3" d="M133 0s16.293 29.268 26.193 56.563A342.845 342.845 0 01170.988 96h44a365.706 365.706 0 0151 4.027s-16.857 19.849-38.288 35.923A298.382 298.382 0 01190.988 159s5.871 19.764 12.53 44.43c7.222 26.75 12.091 55.57 12.091 55.57s-27.149-11.808-48.364-27.786c-19.847-14.948-34.25-27.2-34.25-27.2s-15.552 13-34.265 27.2C76.882 247.792 50.367 259 50.367 259s4.934-29.063 12.091-55.571C69.188 178.485 74.988 159 74.988 159a294.725 294.725 0 01-36.713-23.05C17.146 120.224 0 100.027 0 100.027A367.854 367.854 0 0150.988 96h44a365.86 365.86 0 0111.8-39.437C116.388 29.638 133 0 133 0z"/></g></g></symbol><symbol viewBox="0 0 24.68 24.68" id="remove" xmlns="http://www.w3.org/2000/svg"><path d="M24.66.66L23.99 0 12.33 11.67.66 0 0 .66l11.67 11.67L0 23.99l.66.67 11.67-11.67 11.66 11.67.67-.67-11.67-11.66L24.66.66z"/></symbol><symbol viewBox="0 0 10.66 10.66" id="remove-phat" xmlns="http://www.w3.org/2000/svg"><path d="M10.66.66L9.99 0 5.33 4.67.66 0 0 .66l4.67 4.67L0 9.99l.66.67 4.67-4.67 4.66 4.67.67-.67-4.67-4.66L10.66.66z"/></symbol><symbol viewBox="0 0 11.688 18.438" id="selectbox-chevron" xmlns="http://www.w3.org/2000/svg"><defs><style>.bccls-1{fill:#272727;fill-rule:evenodd}</style></defs><path id="bcForm_295_Kopie_5" data-name="Form 295 Kopie 5" class="bccls-1" d="M732.329 527.624l-.658.752-5.171-5.17-5.171 5.17-.658-.752 5.829-5.829zm-11 6l5.171 5.171 5.17-5.171.659.752-5.829 5.83-5.829-5.83z" transform="translate(-720.656 -521.781)"/></symbol><symbol viewBox="0 0 21.86 15.18" id="thin-check" xmlns="http://www.w3.org/2000/svg"><path data-name="haken" d="M21.86 1.52L8.2 15.18.06 7.06l1.36-1.44 6.78 6.75L20.55 0z"/></symbol><symbol viewBox="0 0 17 21" id="trashcan" xmlns="http://www.w3.org/2000/svg"><defs><style>.becls-1{fill-rule:evenodd}</style></defs><path id="becompare-clear-all" class="becls-1" d="M2387 1258v-1h2v-1h5v-1h3v1h5v1h2v1h-17zm15 18h-13v-17h13v17zm-9-16h-3v15h3v-15zm4 0h-3v15h3v-15zm4 0h-3v15h3v-15z" transform="translate(-2387 -1255)"/></symbol><symbol viewBox="0 0 32 28" id="twitter" xmlns="http://www.w3.org/2000/svg"><path fill-rule="evenodd" class="bfcls-1" d="M10.068 28c12.074 0 18.676-10.767 18.676-20.1q0-.459-.019-.914A13.961 13.961 0 0032 3.325a12.381 12.381 0 01-3.77 1.112A7.019 7.019 0 0031.116.529a12.605 12.605 0 01-4.168 1.715A6.351 6.351 0 0022.157.012a6.83 6.83 0 00-6.565 7.065 7.609 7.609 0 00.17 1.611A18.234 18.234 0 012.233 1.305a7.453 7.453 0 00-.889 3.551 7.216 7.216 0 002.921 5.881 6.161 6.161 0 01-2.973-.884v.09a6.96 6.96 0 005.267 6.927 6.1 6.1 0 01-2.965.121A6.654 6.654 0 009.725 21.9a12.593 12.593 0 01-8.153 3.024 12.412 12.412 0 01-1.566-.1A17.642 17.642 0 0010.068 28"/></symbol><symbol viewBox="0 0 23 23" id="voucher-basket-check" xmlns="http://www.w3.org/2000/svg"><circle cx="11.5" cy="11.5" r="11.5" fill="#fff"/><path d="M17.35 9.52l-7 7-4.7-4.69L7.5 10l2.82 2.82 5.18-5.15z"/></symbol><symbol viewBox="0 0 29.3 21.1" id="wishlist-checked" xmlns="http://www.w3.org/2000/svg"><path d="M19.15 13.57c-2.26 2-5.27 4.69-6.65 5.79-2.25-1.81-8.86-7.77-9.45-8.36a5.62 5.62 0 014-9.6 4.53 4.53 0 012.1.52 6.07 6.07 0 012.26 2l1.12 1.58 1.12-1.62c.13-.18.27-.36.41-.53a6.4 6.4 0 011.81-1.42A4.53 4.53 0 0118 1.41a5.6 5.6 0 015.48 4.38l1.16-1.06c-.05-.15-.1-.29-.16-.44A7.36 7.36 0 0023 2.06 7 7 0 0018 0a5.89 5.89 0 00-2.73.67A7.29 7.29 0 0013 2.44a7.76 7.76 0 00-.5.67l-.5-.67A7.53 7.53 0 009.77.67 5.9 5.9 0 007 0a7 7 0 00-5 12c.67.63 9.6 8.71 10.44 9.09.56-.23 4.7-3.88 7.6-6.5z"/><path fill="#59c346" d="M18.23 7.19l-1.69 1.6 3 3 1.79 1.78 1.87-1.78 6.1-6.19L27.71 4l-6.38 6.29-3.1-3.1z"/></symbol><symbol viewBox="0 0 29.3 21.1" id="wishlist-empty" xmlns="http://www.w3.org/2000/svg"><path d="M18 1.41A5.62 5.62 0 0123.6 7a5.62 5.62 0 01-.44 2.18A5.94 5.94 0 0122 11c-.78.78-7.22 6.57-9.45 8.35-2.3-1.8-8.91-7.76-9.5-8.35a5.62 5.62 0 014-9.6 4.53 4.53 0 012.1.52 6.07 6.07 0 012.26 2l1.12 1.58 1.12-1.62c.13-.18.27-.36.41-.53a6.22 6.22 0 011.81-1.42A4.53 4.53 0 0118 1.41M18 0a5.89 5.89 0 00-2.73.67A7.29 7.29 0 0013 2.44a7.76 7.76 0 00-.5.67l-.5-.67A7.53 7.53 0 009.77.67 5.9 5.9 0 007 0a7 7 0 00-5 12c.67.63 9.6 8.7 10.44 9.09.84-.34 9.81-8.46 10.45-9.09a7.53 7.53 0 001.5-2.24 7.13 7.13 0 000-5.48A7.36 7.36 0 0023 2.06 7 7 0 0018 0z"/></symbol><symbol viewBox="0 0 38.52 31.5" id="wishlist-filled" xmlns="http://www.w3.org/2000/svg"><path d="M32.78 16.44C31.61 17.6 22 26.25 18.66 28.91 15.3 26.2 5.44 17.31 4.56 16.44A8.4 8.4 0 0110.5 2.1a6.72 6.72 0 013.13.78A8.94 8.94 0 0117 5.79l1.71 2.42 1.67-2.41A8.12 8.12 0 0121 5a9.26 9.26 0 012.7-2.12 6.72 6.72 0 013.13-.78 8.41 8.41 0 017.74 5.13 8.52 8.52 0 01.58 2.16 4.25 4.25 0 011-.14 4 4 0 011.1.17 10.25 10.25 0 00-.76-3 10.76 10.76 0 00-2.25-3.33A10.51 10.51 0 0026.83 0a8.79 8.79 0 00-4.08 1 11.16 11.16 0 00-3.34 2.65 10.33 10.33 0 00-.74 1l-.74-1A11.16 11.16 0 0014.59 1a8.83 8.83 0 00-4.09-1 10.46 10.46 0 00-7.42 3.08A10.21 10.21 0 00.83 6.41a10.5 10.5 0 002.25 11.52c1 .94 14.33 13 15.59 13.57 1.25-.5 14.64-12.63 15.59-13.57.21-.21.41-.44.6-.66a4.2 4.2 0 01-1.77-1.17c-.09.11-.2.23-.31.34z"/><path d="M36.17 11a2.36 2.36 0 102.35 2.36A2.36 2.36 0 0036.17 11z" fill="#ff6a00"/></symbol><symbol id="youtube" xml:space="preserve" viewBox="0 0 71.412 50" xmlns="http://www.w3.org/2000/svg"><style type="text/css" id="bkstyle3"/><g id="bkg5" transform="scale(.58824)"><path d="M118.9 13.3c-1.4-5.2-5.5-9.3-10.7-10.7C98.7 0 60.7 0 60.7 0s-38 0-47.5 2.5C8.1 3.9 3.9 8.1 2.5 13.3 0 22.8 0 42.5 0 42.5s0 19.8 2.5 29.2C3.9 76.9 8 81 13.2 82.4 22.8 85 60.7 85 60.7 85s38 0 47.5-2.5c5.2-1.4 9.3-5.5 10.7-10.7 2.5-9.5 2.5-29.2 2.5-29.2s.1-19.8-2.5-29.3z" id="bkpath7" fill="red"/><path id="bkpolygon9" fill="#fff" d="M80.2 42.5L48.6 24.3v36.4z"/></g></symbol><symbol id="youtube-video" xml:space="preserve" viewBox="0 0 71.412 50" xmlns="http://www.w3.org/2000/svg"><style type="text/css" id="blstyle3"/><g id="blg5" transform="scale(.58824)"><path d="M118.9 13.3c-1.4-5.2-5.5-9.3-10.7-10.7C98.7 0 60.7 0 60.7 0s-38 0-47.5 2.5C8.1 3.9 3.9 8.1 2.5 13.3 0 22.8 0 42.5 0 42.5s0 19.8 2.5 29.2C3.9 76.9 8 81 13.2 82.4 22.8 85 60.7 85 60.7 85s38 0 47.5-2.5c5.2-1.4 9.3-5.5 10.7-10.7 2.5-9.5 2.5-29.2 2.5-29.2s.1-19.8-2.5-29.3z" id="blpath7" fill="red"/><path id="blpolygon9" fill="#fff" d="M80.2 42.5L48.6 24.3v36.4z"/></g></symbol></svg>